<?xml version="1.0" encoding="UTF-8"?><svg id="Layer_1" xmlns="http://www.w3.org/2000/svg" viewBox="0 0 638.3 1161.11"><defs><style>.cls-1{fill:#186c39;}.cls-2{fill:#5b5a5d;}.cls-3{fill:#5a5d5d;}.cls-4{fill:#2494d0;}</style></defs><path class="cls-2" d="M68.52,866.64v-42.77c0-14.16,4.54-25.63,13.65-34.4,9.1-8.77,21.52-13.16,37.24-13.16h7.76c19.25,0,33.57,4.18,42.99,12.56,9.41,8.38,14.13,21.44,14.13,39.18v71.79H66.34c-4.76,0-8.54,1.14-11.33,3.43-2.79,2.3-4.18,5.64-4.18,10.03l-.32,51.44H13.59v-50.54c0-14.17,4.54-25.62,13.65-34.4,9.1-8.76,21.52-13.16,37.24-13.16h4.04Zm52.76-54.74c-4.76,0-8.54,1.1-11.33,3.3-2.79,2.19-4.18,5.47-4.18,9.86l-.3,41.58h41.58v-35.3c0-7.97-1.93-13.2-5.75-15.69-3.84-2.5-8.94-3.75-15.36-3.75h-4.66Z"/><path class="cls-2" d="M280.79,899.83c-18.83,0-33.42-3.78-43.75-11.36-10.35-7.58-15.52-19.84-15.52-36.79v-155.23h37.23v155.23c0,6.18,2.19,10.22,6.53,12.11,4.34,1.9,9.63,2.84,15.83,2.84h12.1v33.2h-12.42Z"/><path class="cls-2" d="M388.79,776.3c19.24,0,33.55,4.18,42.97,12.56,9.42,8.38,14.13,21.44,14.13,39.18v38.59h30.41v33.2h-80.37c-10.15,0-19.19-.9-27.15-2.69-7.98-1.79-14.85-4.69-20.64-8.67-11.39,7.58-26.91,11.36-46.55,11.36h-13.97v-33.2h14.89c3.52,0,6.92-.3,10.25-.9,3.3-.59,6.24-1.65,8.84-3.14,2.58-1.49,4.65-3.33,6.19-5.53,1.55-2.2,2.33-4.99,2.33-8.38v-24.82c0-14.16,4.56-25.63,13.66-34.4,9.09-8.77,21.51-13.16,37.23-13.16h7.77Zm-5.91,35.59c-4.76,0-8.53,1.1-11.32,3.3-2.79,2.19-4.2,5.47-4.2,9.86v23.64c0,3.39,.78,6.18,2.33,8.38,1.56,2.2,3.62,4.04,6.21,5.53,2.58,1.49,5.53,2.55,8.83,3.14,3.33,.59,6.74,.9,10.25,.9h13.66v-35.3c0-7.97-1.91-13.2-5.75-15.69-3.82-2.5-8.94-3.75-15.36-3.75h-4.66Z"/><path class="cls-2" d="M491.81,753.87c-6.19,0-11.48-2.1-15.82-6.28s-6.51-9.18-6.51-14.97c0-6.18,2.17-11.36,6.51-15.55s9.63-6.28,15.82-6.28,11.23,2.1,15.68,6.28c4.46,4.18,6.67,9.37,6.67,15.55,0,5.79-2.21,10.78-6.67,14.97-4.44,4.18-9.67,6.28-15.68,6.28m-20.78,145.97v-33.22h12.1c6.21,0,11.48-.93,15.83-2.82,4.34-1.9,6.51-5.93,6.51-12.11v-75.38h37.24v75.38c0,16.93-5.17,29.21-15.52,36.79-10.35,7.58-24.92,11.36-43.75,11.36h-12.42Zm76.65-145.97c-6.21,0-11.48-2.1-15.82-6.28-4.34-4.18-6.51-9.18-6.51-14.97,0-6.18,2.17-11.36,6.51-15.55,4.34-4.18,9.61-6.28,15.82-6.28s11.23,2.1,15.68,6.28c4.44,4.18,6.67,9.37,6.67,15.55,0,5.79-2.23,10.78-6.67,14.97-4.44,4.18-9.68,6.28-15.68,6.28"/><path class="cls-2" d="M577.78,965.95h12.42c-.62-1.42-1.14-3.14-1.55-5.24-.42-2.08-.62-3.75-.62-4.94,0-4.99,.83-9.28,2.48-12.87,1.65-3.58,3.89-6.47,6.69-8.67,2.78-2.2,6.05-3.85,9.76-4.94,3.73-1.11,7.56-1.65,11.49-1.65,3.31,0,6.51,.51,9.63,1.51,3.1,.98,6.51,2.58,10.23,4.79v20.03c-1.85-1.2-4.39-2.45-7.6-3.73-3.21-1.3-6.37-2.06-9.47-2.24-3.1-.2-5.75,.23-7.92,1.35-2.17,1.09-3.26,3.43-3.26,7.02,0,1,.26,2.49,.78,4.49,.51,2,1.29,3.68,2.33,5.09h25.13v18.85h-60.52v-18.85Zm51.83-66.12h-37.24v-203.39h37.24v203.39Z"/><path class="cls-2" d="M40.87,1093.01c-1.27,.35-2.78,.68-4.52,1.04-1.74,.33-3.5,.62-5.31,.9-1.81,.26-3.56,.48-5.25,.64-1.68,.17-3.11,.26-4.28,.26-2.59,0-5.17-.29-7.71-.85-2.53-.58-4.83-1.56-6.89-2.98-2.06-1.4-3.72-3.33-4.99-5.77s-1.91-5.57-1.91-9.36v-21.39H8.96v20.96c0,1.9,.39,3.44,1.17,4.68,.78,1.2,1.78,2.13,2.97,2.79,1.2,.65,2.55,1.13,4.04,1.38,1.49,.26,2.95,.39,4.37,.39h2.39c.94,0,1.91-.03,2.89-.09,.97-.06,1.94-.1,2.89-.13,.96-.03,1.75-.1,2.39-.22v-35.62h8.8v26.05h8.08v9.57h-8.08v7.77Zm-21.13-49.86c-1.46,0-2.71-.61-3.75-1.81-1.01-1.22-1.53-2.65-1.53-4.31,0-1.78,.52-3.29,1.53-4.5,1.04-1.2,2.29-1.79,3.75-1.79s2.66,.59,3.71,1.79c1.06,1.22,1.58,2.72,1.58,4.5,0,1.66-.52,3.1-1.58,4.31-1.04,1.2-2.29,1.81-3.71,1.81"/><path class="cls-2" d="M49.82,1105.94c-1.46,0-2.71-.61-3.73-1.81-1.03-1.2-1.55-2.65-1.55-4.3,0-1.79,.52-3.29,1.55-4.5,1.03-1.2,2.27-1.81,3.73-1.81s2.65,.61,3.71,1.81c1.06,1.22,1.59,2.71,1.59,4.5,0,1.65-.54,3.1-1.59,4.3-1.06,1.2-2.29,1.81-3.71,1.81m-2.13-20.7v-9.57h2.87c1.46,0,2.72-.29,3.75-.83,1.03-.55,1.53-1.71,1.53-3.5v-21.73h8.81v21.73c0,4.91-1.23,8.42-3.68,10.62-2.45,2.17-5.89,3.27-10.35,3.27h-2.94Zm15.34,20.7c-1.48,0-2.72-.61-3.75-1.81-1.03-1.2-1.53-2.65-1.53-4.3,0-1.79,.51-3.29,1.53-4.5,1.03-1.2,2.27-1.81,3.75-1.81s2.65,.61,3.71,1.81c1.06,1.22,1.58,2.71,1.58,4.5,0,1.65-.52,3.1-1.58,4.3-1.06,1.2-2.29,1.81-3.71,1.81"/><path class="cls-2" d="M80.65,1049.62h8.8v41.48c0,4.43-1.1,7.69-3.3,9.76s-5.04,3.1-8.51,3.1c-1.13,0-2.2-.12-3.23-.38-1.03-.26-1.95-.56-2.78-.91v-8.71c.83,.36,1.65,.64,2.49,.87,.83,.22,1.59,.33,2.27,.33,1.32,0,2.36-.38,3.13-1.16,.75-.77,1.13-2.26,1.13-4.44v-39.93Z"/><path class="cls-2" d="M121.52,1085.23h-5.5c-2.21,0-4.33-.35-6.38-1.07-2.06-.72-3.88-1.81-5.47-3.27s-2.85-3.34-3.78-5.62c-.93-2.27-1.39-4.98-1.39-8.15,0-2.48,.38-4.78,1.13-6.9,.77-2.13,1.88-3.98,3.37-5.57,1.49-1.58,3.33-2.82,5.51-3.75,2.17-.91,4.68-1.38,7.51-1.38,.78,0,1.78,.09,3.01,.26,1.23,.17,2.49,.39,3.82,.65,1.32,.25,2.61,.59,3.85,.98,1.24,.41,2.32,.81,3.18,1.22v23.03h6.61v9.57h-6.61v1.98c0,3.29-.52,6.02-1.56,8.21-1.06,2.17-2.39,3.92-4.01,5.23-1.61,1.29-3.4,2.21-5.36,2.75-1.95,.55-3.86,.83-5.72,.83-4.11,0-7.86-.96-11.23-2.85v-9.67c2,1.33,3.86,2.29,5.57,2.89,1.72,.61,3.6,.91,5.66,.91s3.98-.69,5.5-2.07c1.52-1.39,2.27-3.53,2.27-6.47v-1.74Zm.07-25.71c-.43-.1-1.09-.27-1.94-.46-.87-.2-1.9-.3-3.13-.3-3.08,0-5.36,.77-6.82,2.33-1.48,1.55-2.2,3.56-2.2,6.04,0,2.71,.75,4.81,2.27,6.3,1.52,1.51,3.59,2.24,6.24,2.24h5.57v-16.14Z"/><path class="cls-2" d="M189.91,1085.24h-54.23v-9.58h7.05v-49.08h8.51v30.54c1.03-1.16,2.3-2.19,3.82-3.11,1.52-.93,3.13-1.71,4.85-2.36,1.71-.67,3.44-1.17,5.21-1.52,1.75-.35,3.42-.51,4.98-.51,2.4,0,4.46,.29,6.17,.9,1.71,.61,3.13,1.61,4.23,3.01,1.1,1.42,1.91,3.27,2.46,5.57,.52,2.3,.8,5.14,.8,8.54v8.02h6.17v9.58Zm-14.68-9.58v-7.06c0-1.33-.07-2.55-.22-3.68-.14-1.11-.42-2.1-.84-2.94-.42-.83-.98-1.46-1.69-1.92-.71-.46-1.62-.69-2.75-.69-1.27,0-2.75,.22-4.44,.64-1.68,.43-3.42,1.22-5.17,2.34-1.77,1.11-3.44,2.68-5.02,4.69-1.59,2.01-2.88,4.6-3.86,7.77v.85h24Z"/><path class="cls-2" d="M212.51,1049.62c4.56,0,7.95,1.2,10.18,3.62,2.21,2.42,3.33,6.18,3.33,11.3v11.12h7.19v9.58h-19c-2.39,0-4.54-.25-6.43-.78-1.88-.51-3.5-1.35-4.88-2.49-2.69,2.17-6.35,3.27-11,3.27h-3.31v-9.58h3.53c.83,0,1.64-.09,2.42-.26,.78-.16,1.49-.46,2.1-.9s1.1-.96,1.46-1.59c.36-.64,.55-1.43,.55-2.42v-7.16c0-4.08,1.07-7.38,3.24-9.91,2.14-2.52,5.08-3.79,8.8-3.79h1.82Zm-1.39,10.26c-1.13,0-2.03,.32-2.68,.94-.67,.64-.98,1.59-.98,2.85v6.82c0,.98,.17,1.78,.55,2.42,.36,.64,.85,1.16,1.46,1.59,.61,.43,1.3,.74,2.08,.9,.78,.17,1.59,.26,2.43,.26h3.23v-10.16c0-2.32-.46-3.82-1.36-4.54-.9-.71-2.11-1.07-3.63-1.07h-1.1Zm20.77,25.36v-9.58h2.87c1.46,0,2.71-.26,3.73-.81s1.53-1.71,1.53-3.5v-44.77h8.81v44.77c0,4.91-1.23,8.44-3.66,10.62-2.46,2.17-5.91,3.27-10.35,3.27h-2.94Z"/><rect class="cls-2" x="260.58" y="1026.58" width="8.8" height="58.66"/><path class="cls-2" d="M308.93,1085.24c-4.46,0-7.9-1.09-10.35-3.27-2.45-2.19-3.68-5.72-3.68-10.62v-21.73h8.81v21.73c0,1.79,.51,2.95,1.53,3.5,1.03,.55,2.29,.81,3.75,.81h24.07c1.48,0,2.72-.26,3.75-.81,1.01-.55,1.53-1.71,1.53-3.5v-21.73h8.8v21.73c0,4.91-1.23,8.44-3.66,10.62-2.46,2.19-5.91,3.27-10.35,3.27h-24.21Zm4.99-42.09c-1.48,0-2.72-.61-3.75-1.81-1.03-1.22-1.53-2.65-1.53-4.31,0-1.78,.51-3.29,1.53-4.5,1.03-1.2,2.27-1.79,3.75-1.79s2.65,.59,3.69,1.79c1.06,1.22,1.59,2.72,1.59,4.5,0,1.66-.54,3.1-1.59,4.31-1.04,1.2-2.27,1.81-3.69,1.81m13.2,0c-1.46,0-2.71-.61-3.75-1.81-1.03-1.22-1.53-2.65-1.53-4.31,0-1.78,.51-3.29,1.53-4.5,1.04-1.2,2.29-1.79,3.75-1.79s2.65,.59,3.71,1.79c1.06,1.22,1.58,2.72,1.58,4.5,0,1.66-.52,3.1-1.58,4.31-1.06,1.2-2.29,1.81-3.71,1.81"/><path class="cls-2" d="M372.18,1085.24c-4.44,0-7.89-1.1-10.33-3.27-2.46-2.19-3.68-5.72-3.68-10.62v-44.77h8.81v44.77c0,1.79,.51,2.95,1.53,3.5s2.27,.81,3.73,.81h2.87v9.58h-2.94Z"/><path class="cls-2" d="M397.72,1049.62c4.56,0,7.95,1.2,10.16,3.62,2.23,2.42,3.34,6.18,3.34,11.3v20.7h-11.81c-2.4,0-4.54-.25-6.43-.78-1.88-.51-3.5-1.35-4.88-2.49-2.69,2.17-6.35,3.27-11.01,3.27h-3.3v-9.58h3.53c.83,0,1.64-.09,2.42-.26,.78-.16,1.48-.46,2.1-.9,.61-.43,1.1-.96,1.46-1.59,.36-.64,.55-1.43,.55-2.42v-7.16c0-4.08,1.09-7.38,3.23-9.91,2.16-2.52,5.09-3.79,8.81-3.79h1.82Zm-1.39,10.26c-1.11,0-2.03,.32-2.68,.94-.67,.64-.98,1.59-.98,2.85v6.82c0,.98,.19,1.78,.55,2.42,.36,.64,.85,1.16,1.46,1.59s1.3,.74,2.08,.9c.78,.17,1.59,.26,2.43,.26h3.23v-10.16c0-2.32-.46-3.82-1.36-4.54-.91-.71-2.11-1.07-3.63-1.07h-1.1Z"/><path class="cls-2" d="M417.83,1075.66h19.67v-10.96c0-1.09-.16-2-.48-2.72-.32-.71-.74-1.24-1.24-1.64-.52-.36-1.1-.64-1.77-.77-.67-.14-1.3-.22-1.94-.22h-1.84c-.68,0-1.45,.04-2.27,.12-.84,.1-1.71,.22-2.61,.41-.91,.16-1.78,.38-2.65,.64-.85,.26-1.65,.56-2.37,.91v-9.32c1.4-.8,3.11-1.42,5.09-1.85s3.81-.64,5.46-.64h1.84c2.06,0,3.92,.26,5.59,.77,1.65,.52,3.07,1.33,4.26,2.46,1.17,1.11,2.07,2.58,2.71,4.4,.64,1.81,.96,3.98,.96,6.51v11.9h5.5v9.58h-33.9v-9.58Z"/><path class="cls-2" d="M450.41,1075.66h24.94v-10.94c0-1.09-.16-2-.48-2.72-.3-.72-.72-1.26-1.24-1.64-.51-.38-1.1-.64-1.77-.78-.65-.14-1.3-.22-1.94-.22h-4.62c-.69,0-1.45,.04-2.29,.13-.83,.09-1.69,.22-2.59,.39-.91,.17-1.79,.39-2.65,.65s-1.65,.55-2.39,.9v-9.32c1.42-.8,3.11-1.4,5.11-1.84,1.98-.45,3.79-.65,5.47-.65h4.62c2.06,0,3.91,.26,5.57,.77,1.66,.52,3.08,1.35,4.26,2.46,1.17,1.13,2.08,2.59,2.72,4.4s.96,3.98,.96,6.53v21.48h-33.68v-9.6Zm17.31-32.51c-1.46,0-2.72-.61-3.75-1.81-1.01-1.22-1.53-2.65-1.53-4.31,0-1.78,.52-3.29,1.53-4.49,1.03-1.22,2.29-1.81,3.75-1.81s2.65,.59,3.71,1.81c1.06,1.2,1.58,2.71,1.58,4.49,0,1.66-.52,3.1-1.58,4.31-1.06,1.2-2.29,1.81-3.71,1.81"/><path class="cls-2" d="M514.61,1049.62h8.8v26.04h6.54v9.58h-6.54v5.86c0,4.43-1.09,7.69-3.29,9.76-2.2,2.07-5.04,3.1-8.53,3.1-1.11,0-2.19-.12-3.21-.38s-1.95-.56-2.79-.91v-8.71c.84,.36,1.66,.64,2.49,.87,.84,.22,1.59,.33,2.29,.33,1.3,0,2.36-.38,3.11-1.16,.75-.77,1.13-2.26,1.13-4.44v-39.93Zm3.97-6.47c-1.46,0-2.72-.61-3.75-1.81-1.03-1.22-1.53-2.65-1.53-4.31,0-1.78,.51-3.29,1.53-4.5,1.03-1.2,2.29-1.79,3.75-1.79s2.65,.59,3.71,1.79c1.06,1.22,1.58,2.72,1.58,4.5,0,1.66-.52,3.1-1.58,4.31-1.06,1.2-2.29,1.81-3.71,1.81"/><path class="cls-2" d="M528.63,1085.24v-9.58h18.79c.78,0,1.52-.09,2.23-.25,.72-.17,1.33-.46,1.87-.85,.55-.41,.97-.93,1.3-1.56,.32-.64,.48-1.4,.48-2.33v-4.49c0-1.16-.19-2.08-.55-2.81-.38-.71-.83-1.29-1.36-1.72-.55-.43-1.16-.71-1.84-.85-.68-.16-1.38-.22-2.06-.22h-16.07v-8.11l29.21-28.04v12.25l-15.05,14.31h1.55c2.24,0,4.28,.25,6.12,.74,1.84,.49,3.39,1.27,4.69,2.36,1.3,1.1,2.32,2.58,3.05,4.41,.72,1.84,1.11,4.08,1.17,6.73v5.43c.04,5.17-1.23,8.9-3.82,11.16-2.59,2.29-6.21,3.42-10.86,3.42h-18.86Z"/><path class="cls-2" d="M576.03,1049.62h8.8v26.04h6.54v9.58h-6.54v5.86c0,4.43-1.1,7.69-3.3,9.76s-5.04,3.1-8.51,3.1c-1.11,0-2.2-.12-3.23-.38-1.03-.26-1.95-.56-2.78-.91v-8.71c.83,.36,1.65,.64,2.49,.87,.84,.22,1.59,.33,2.27,.33,1.32,0,2.36-.38,3.11-1.16,.77-.77,1.14-2.26,1.14-4.44v-39.93Z"/><path class="cls-2" d="M613.97,1049.62c4.56,0,7.93,1.2,10.16,3.62s3.34,6.18,3.34,11.3v20.7h-11.81c-2.4,0-4.54-.25-6.43-.78-1.88-.51-3.5-1.35-4.88-2.49-2.69,2.17-6.37,3.27-11.01,3.27h-3.3v-9.58h3.53c.83,0,1.64-.09,2.42-.26,.78-.16,1.48-.46,2.1-.9,.61-.43,1.09-.96,1.46-1.59,.36-.64,.55-1.43,.55-2.42v-7.16c0-4.08,1.07-7.38,3.23-9.91,2.16-2.52,5.09-3.79,8.8-3.79h1.84Zm-1.39,10.26c-1.13,0-2.03,.32-2.68,.94-.67,.64-1,1.59-1,2.85v6.82c0,.98,.19,1.78,.56,2.42,.36,.64,.84,1.16,1.46,1.59,.61,.43,1.3,.74,2.08,.9,.78,.17,1.59,.26,2.43,.26h3.23v-10.16c0-2.32-.46-3.82-1.36-4.54-.91-.71-2.11-1.07-3.65-1.07h-1.09Z"/><path class="cls-2" d="M24.85,1144.17c0,1.22,0,2.42-.01,3.65s-.1,2.43-.28,3.59c-.17,1.19-.48,2.3-.91,3.39-.42,1.07-1.06,2.06-1.88,2.94-.97,1.06-2.13,1.82-3.47,2.35-1.35,.49-2.82,.75-4.43,.75H3.14v-32.86H13.86c1.61,0,3.08,.26,4.43,.77,1.35,.51,2.5,1.27,3.47,2.33,.83,.9,1.46,1.85,1.88,2.88,.43,1.03,.74,2.11,.91,3.23,.17,1.13,.26,2.27,.28,3.44,.01,1.16,.01,2.35,.01,3.55m-4.66,0c0-2.27-.07-4.18-.22-5.75-.14-1.55-.62-2.81-1.4-3.76-1.26-1.46-2.98-2.2-5.17-2.2H7.81v23.9h5.59c2.19,0,3.91-.75,5.17-2.21,.78-.97,1.26-2.29,1.4-3.99,.14-1.71,.22-3.71,.22-5.98"/><polygon class="cls-2" points="31.66 1160.83 31.66 1127.99 51.19 1127.99 51.19 1132.46 36.34 1132.46 36.34 1142.01 49 1142.01 49 1146.48 36.34 1146.48 36.34 1156.35 51.19 1156.35 51.19 1160.83 31.66 1160.83"/><polygon class="cls-2" points="67.33 1160.83 63.73 1160.83 53.71 1127.99 58.52 1127.99 65.54 1151.88 72.56 1127.99 77.44 1127.99 67.33 1160.83"/><polygon class="cls-2" points="81.64 1160.83 81.64 1127.99 101.16 1127.99 101.16 1132.46 86.3 1132.46 86.3 1142.01 98.98 1142.01 98.98 1146.48 86.3 1146.48 86.3 1156.35 101.16 1156.35 101.16 1160.83 81.64 1160.83"/><polygon class="cls-2" points="107.46 1160.83 107.46 1127.99 112.12 1127.99 112.12 1156.35 126.81 1156.35 126.81 1160.83 107.46 1160.83"/><path class="cls-2" d="M151.78,1144.41c0,1.58-.01,3-.04,4.27-.03,1.27-.12,2.43-.29,3.49-.17,1.04-.46,2-.87,2.89-.39,.9-.97,1.75-1.71,2.53-1.06,1.14-2.26,2.03-3.6,2.61-1.35,.61-2.84,.91-4.46,.91s-3.11-.3-4.44-.91c-1.33-.58-2.53-1.46-3.59-2.61-.74-.78-1.32-1.64-1.72-2.53-.39-.9-.68-1.85-.88-2.89-.17-1.06-.28-2.21-.3-3.49s-.06-2.69-.06-4.27,.03-3,.06-4.27,.13-2.45,.3-3.47c.2-1.06,.49-2.03,.88-2.91,.41-.9,.98-1.74,1.72-2.53,1.06-1.14,2.26-2.01,3.59-2.62,1.33-.59,2.81-.9,4.44-.9s3.11,.3,4.46,.9c1.35,.61,2.55,1.48,3.6,2.62,.74,.8,1.32,1.64,1.71,2.53,.41,.88,.69,1.85,.87,2.91,.17,1.03,.26,2.2,.29,3.47,.03,1.27,.04,2.69,.04,4.27m-4.66,0c0-1.66-.03-3.04-.07-4.12-.04-1.09-.12-2.01-.25-2.78-.13-.74-.32-1.38-.56-1.88-.23-.51-.54-.98-.91-1.4-.54-.61-1.2-1.11-1.98-1.49-.78-.36-1.64-.55-2.53-.55s-1.77,.19-2.55,.55c-.78,.38-1.45,.88-1.98,1.49-.36,.42-.68,.9-.93,1.4-.23,.51-.42,1.14-.55,1.88-.13,.77-.22,1.69-.25,2.78-.04,1.09-.07,2.46-.07,4.12s.03,3.04,.07,4.13c.03,1.1,.12,2.01,.25,2.76,.13,.77,.32,1.39,.55,1.9,.25,.51,.56,.97,.93,1.42,.54,.61,1.2,1.1,1.98,1.48,.78,.36,1.64,.54,2.55,.54s1.75-.17,2.53-.54c.78-.38,1.45-.87,1.98-1.48,.38-.45,.68-.91,.91-1.42,.25-.51,.43-1.13,.56-1.9,.13-.75,.2-1.66,.25-2.76,.04-1.09,.07-2.46,.07-4.13"/><path class="cls-2" d="M179.97,1137.95c0,1.45-.23,2.78-.69,3.98-.45,1.22-1.11,2.27-1.97,3.16-.85,.87-1.88,1.56-3.08,2.07s-2.55,.77-4.02,.77h-6.93v12.91h-4.68v-32.86h11.58c1.49,0,2.84,.26,4.04,.77s2.23,1.2,3.1,2.08c.85,.87,1.51,1.92,1.97,3.16,.46,1.23,.69,2.55,.69,3.97m-4.68,.01c0-1.75-.49-3.11-1.46-4.07-1-.96-2.3-1.43-3.92-1.43h-6.64v10.99h6.64c1.62,0,2.92-.48,3.92-1.42,.97-.95,1.46-2.3,1.46-4.07"/><polygon class="cls-2" points="185.53 1160.83 185.53 1127.99 205.05 1127.99 205.05 1132.46 190.2 1132.46 190.2 1142.01 202.87 1142.01 202.87 1146.48 190.2 1146.48 190.2 1156.35 205.05 1156.35 205.05 1160.83 185.53 1160.83"/><path class="cls-2" d="M228.19,1160.83l-6.4-13.84h-5.78v13.84h-4.66v-32.84h11.84c1.46,0,2.76,.23,3.92,.72,1.16,.46,2.16,1.11,3,1.98,.83,.82,1.46,1.85,1.91,3.04,.43,1.19,.67,2.46,.67,3.85,0,2.37-.59,4.28-1.78,5.75-1.19,1.45-2.63,2.45-4.36,2.98l7.08,14.52h-5.44Zm-.17-23.2c0-1.64-.48-2.89-1.43-3.81-.94-.91-2.2-1.36-3.73-1.36h-6.83v10.29h6.83c1.53,0,2.79-.45,3.73-1.35,.96-.9,1.43-2.14,1.43-3.78"/><path class="cls-2" d="M258.46,1151.47c0,1.51-.28,2.85-.81,4.07-.55,1.19-1.3,2.2-2.27,3.04-.97,.82-2.13,1.45-3.46,1.88-1.36,.43-2.82,.65-4.43,.65-2.3,0-4.31-.32-6.04-.97-1.71-.64-3.29-1.77-4.75-3.37l3.08-3.27c1.11,1.2,2.3,2.03,3.55,2.47,1.26,.43,2.68,.67,4.26,.67,2,0,3.55-.45,4.63-1.32,1.1-.88,1.65-2.11,1.65-3.72,0-1.5-.39-2.65-1.19-3.4-.41-.41-.84-.69-1.29-.88-.46-.19-1.14-.35-2.06-.51l-3.6-.55c-2.48-.38-4.41-1.24-5.78-2.63-1.49-1.52-2.23-3.6-2.23-6.27,0-1.43,.23-2.72,.71-3.91,.48-1.19,1.14-2.2,2.01-3.07,.87-.85,1.94-1.52,3.18-1.98,1.26-.45,2.69-.69,4.28-.69,2.03,0,3.78,.3,5.27,.88,1.49,.58,2.88,1.53,4.2,2.85l-2.95,3.14c-.94-.97-1.97-1.65-3.05-2-1.11-.36-2.3-.54-3.59-.54-1.79,0-3.17,.49-4.13,1.45-.97,.97-1.45,2.2-1.45,3.68,0,.61,.1,1.17,.29,1.68s.48,.97,.87,1.36c.81,.77,1.95,1.27,3.43,1.53l3.47,.55c1.42,.25,2.56,.55,3.42,.94,.87,.38,1.62,.88,2.27,1.49,.84,.8,1.45,1.78,1.87,2.91s.62,2.42,.62,3.84"/><path class="cls-2" d="M294.01,1151.47c0,1.51-.28,2.85-.81,4.07-.55,1.19-1.3,2.2-2.27,3.04-.97,.82-2.13,1.45-3.47,1.88-1.35,.43-2.81,.65-4.41,.65-2.3,0-4.31-.32-6.04-.97-1.71-.64-3.29-1.77-4.75-3.37l3.08-3.27c1.11,1.2,2.3,2.03,3.55,2.47,1.26,.43,2.68,.67,4.24,.67,2.01,0,3.55-.45,4.65-1.32,1.1-.88,1.65-2.11,1.65-3.72,0-1.5-.39-2.65-1.19-3.4-.41-.41-.84-.69-1.29-.88-.46-.19-1.14-.35-2.06-.51l-3.6-.55c-2.48-.38-4.41-1.24-5.78-2.63-1.49-1.52-2.23-3.6-2.23-6.27,0-1.43,.23-2.72,.71-3.91,.46-1.19,1.14-2.2,2.01-3.07,.87-.85,1.93-1.52,3.18-1.98,1.26-.45,2.68-.69,4.28-.69,2.03,0,3.78,.3,5.27,.88,1.49,.58,2.88,1.53,4.2,2.85l-2.95,3.14c-.94-.97-1.97-1.65-3.07-2-1.1-.36-2.29-.54-3.58-.54-1.79,0-3.17,.49-4.13,1.45-.97,.97-1.45,2.2-1.45,3.68,0,.61,.1,1.17,.29,1.68s.48,.97,.87,1.36c.81,.77,1.95,1.27,3.43,1.53l3.47,.55c1.42,.25,2.56,.55,3.42,.94,.87,.38,1.62,.88,2.27,1.49,.84,.8,1.45,1.78,1.87,2.91s.62,2.42,.62,3.84"/><polygon class="cls-2" points="300.21 1160.83 300.21 1127.99 319.74 1127.99 319.74 1132.46 304.87 1132.46 304.87 1142.01 317.55 1142.01 317.55 1146.48 304.87 1146.48 304.87 1156.35 319.74 1156.35 319.74 1160.83 300.21 1160.83"/><path class="cls-2" d="M342.87,1160.83l-6.4-13.84h-5.76v13.84h-4.68v-32.84h11.85c1.45,0,2.75,.23,3.91,.72,1.17,.46,2.16,1.11,3,1.98,.83,.82,1.46,1.85,1.91,3.04,.43,1.19,.67,2.46,.67,3.85,0,2.37-.59,4.28-1.78,5.75-1.17,1.45-2.63,2.45-4.36,2.98l7.08,14.52h-5.44Zm-.17-23.2c0-1.64-.48-2.89-1.43-3.81-.96-.91-2.19-1.36-3.73-1.36h-6.82v10.29h6.82c1.55,0,2.78-.45,3.73-1.35,.96-.9,1.43-2.14,1.43-3.78"/><polygon class="cls-2" points="363.94 1160.83 360.33 1160.83 350.32 1127.99 355.12 1127.99 362.14 1151.88 369.16 1127.99 374.04 1127.99 363.94 1160.83"/><rect class="cls-2" x="378.24" y="1127.98" width="4.66" height="32.84"/><path class="cls-2" d="M410.25,1155.34c-.64,1.26-1.45,2.33-2.4,3.17-.96,.87-2.04,1.52-3.26,1.95-1.2,.42-2.5,.64-3.86,.64-1.61,0-3.07-.3-4.41-.9-1.35-.61-2.55-1.48-3.62-2.61-.74-.8-1.33-1.65-1.72-2.55-.41-.88-.71-1.85-.88-2.89-.2-1.04-.3-2.21-.33-3.49-.03-1.27-.04-2.69-.04-4.27s.01-2.98,.04-4.27c.03-1.26,.13-2.43,.33-3.47,.17-1.06,.48-2.01,.88-2.89,.39-.91,.98-1.75,1.72-2.55,1.07-1.14,2.27-2.01,3.62-2.61,1.35-.61,2.81-.91,4.41-.91,2.82,0,5.21,.87,7.14,2.59,1.95,1.72,3.2,4.23,3.73,7.53h-4.7c-.38-1.66-1.07-3.02-2.08-4.05-1.01-1.06-2.37-1.58-4.08-1.58-.93,0-1.75,.17-2.53,.52-.77,.36-1.43,.84-1.97,1.46-.38,.43-.68,.9-.93,1.4-.23,.51-.43,1.14-.55,1.9-.13,.75-.23,1.68-.27,2.78-.06,1.11-.09,2.49-.09,4.15s.03,3.04,.09,4.15c.04,1.11,.14,2.04,.27,2.79,.12,.75,.32,1.39,.55,1.9,.25,.51,.55,.97,.93,1.4,.54,.61,1.2,1.1,1.97,1.45,.78,.36,1.61,.54,2.53,.54,1.71,0,3.07-.54,4.11-1.58,1.03-1.04,1.72-2.39,2.1-4.05h4.66c-.26,1.64-.71,3.07-1.35,4.34"/><polygon class="cls-2" points="417.72 1160.83 417.72 1127.99 437.25 1127.99 437.25 1132.46 422.38 1132.46 422.38 1142.01 435.06 1142.01 435.06 1146.48 422.38 1146.48 422.38 1156.35 437.25 1156.35 437.25 1160.83 417.72 1160.83"/><path class="cls-2" d="M462.6,1151.47c0,1.51-.28,2.85-.81,4.07-.55,1.19-1.3,2.2-2.27,3.04-.97,.82-2.13,1.45-3.47,1.88s-2.81,.65-4.41,.65c-2.3,0-4.31-.32-6.04-.97-1.71-.64-3.29-1.77-4.75-3.37l3.08-3.27c1.11,1.2,2.3,2.03,3.55,2.47,1.26,.43,2.68,.67,4.24,.67,2.01,0,3.56-.45,4.65-1.32,1.1-.88,1.66-2.11,1.66-3.72,0-1.5-.41-2.65-1.2-3.4-.41-.41-.84-.69-1.29-.88-.46-.19-1.14-.35-2.06-.51l-3.6-.55c-2.48-.38-4.41-1.24-5.78-2.63-1.49-1.52-2.23-3.6-2.23-6.27,0-1.43,.23-2.72,.71-3.91,.46-1.19,1.14-2.2,2.01-3.07,.87-.85,1.94-1.52,3.18-1.98,1.26-.45,2.69-.69,4.28-.69,2.03,0,3.78,.3,5.27,.88,1.49,.58,2.88,1.53,4.2,2.85l-2.95,3.14c-.94-.97-1.97-1.65-3.07-2-1.1-.36-2.29-.54-3.58-.54-1.79,0-3.17,.49-4.13,1.45-.96,.97-1.43,2.2-1.43,3.68,0,.61,.09,1.17,.27,1.68s.46,.97,.87,1.36c.81,.77,1.95,1.27,3.43,1.53l3.47,.55c1.42,.25,2.56,.55,3.43,.94,.85,.38,1.61,.88,2.27,1.49,.83,.8,1.43,1.78,1.85,2.91s.62,2.42,.62,3.84"/><path class="cls-2" d="M498.51,1155.34c-.64,1.26-1.43,2.33-2.39,3.17-.97,.87-2.06,1.52-3.26,1.95-1.22,.42-2.52,.64-3.88,.64-1.61,0-3.07-.3-4.41-.9-1.35-.61-2.53-1.48-3.62-2.61-.74-.8-1.32-1.65-1.72-2.55-.41-.88-.71-1.85-.88-2.89-.19-1.04-.3-2.21-.33-3.49-.03-1.27-.03-2.69-.03-4.27s0-2.98,.03-4.27c.03-1.26,.14-2.43,.33-3.47,.17-1.06,.48-2.01,.88-2.89,.41-.91,.98-1.75,1.72-2.55,1.09-1.14,2.27-2.01,3.62-2.61,1.35-.61,2.81-.91,4.41-.91,2.82,0,5.21,.87,7.15,2.59,1.94,1.72,3.18,4.23,3.72,7.53h-4.7c-.38-1.66-1.07-3.02-2.08-4.05-1.01-1.06-2.37-1.58-4.08-1.58-.91,0-1.75,.17-2.53,.52-.77,.36-1.42,.84-1.97,1.46-.36,.43-.67,.9-.93,1.4-.23,.51-.42,1.14-.55,1.9-.13,.75-.22,1.68-.27,2.78-.06,1.11-.09,2.49-.09,4.15s.03,3.04,.09,4.15,.14,2.04,.27,2.79c.13,.75,.32,1.39,.55,1.9,.26,.51,.56,.97,.93,1.4,.55,.61,1.2,1.1,1.97,1.45,.78,.36,1.62,.54,2.53,.54,1.71,0,3.08-.54,4.11-1.58,1.03-1.04,1.72-2.39,2.1-4.05h4.66c-.25,1.64-.71,3.07-1.35,4.34"/><polygon class="cls-2" points="505.98 1160.83 505.98 1127.99 525.51 1127.99 525.51 1132.46 510.65 1132.46 510.65 1142.01 523.32 1142.01 523.32 1146.48 510.65 1146.48 510.65 1156.35 525.51 1156.35 525.51 1160.83 505.98 1160.83"/><polygon class="cls-2" points="550.56 1160.83 536.47 1137.71 536.47 1160.83 531.81 1160.83 531.81 1127.99 536.05 1127.99 550.13 1151.06 550.13 1127.99 554.81 1127.99 554.81 1160.83 550.56 1160.83"/><polygon class="cls-2" points="573.09 1132.46 573.09 1160.83 568.43 1160.83 568.43 1132.46 560.03 1132.46 560.03 1127.99 581.48 1127.99 581.48 1132.46 573.09 1132.46"/><polygon class="cls-2" points="586.71 1160.83 586.71 1127.99 606.23 1127.99 606.23 1132.46 591.37 1132.46 591.37 1142.01 604.05 1142.01 604.05 1146.48 591.37 1146.48 591.37 1156.35 606.23 1156.35 606.23 1160.83 586.71 1160.83"/><path class="cls-2" d="M629.36,1160.83l-6.4-13.84h-5.76v13.84h-4.68v-32.84h11.85c1.45,0,2.75,.23,3.91,.72,1.17,.46,2.16,1.11,3,1.98,.83,.82,1.46,1.85,1.9,3.04,.45,1.19,.68,2.46,.68,3.85,0,2.37-.61,4.28-1.78,5.75-1.19,1.45-2.62,2.45-4.34,2.98l7.06,14.52h-5.44Zm-.17-23.2c0-1.64-.48-2.89-1.43-3.81-.94-.91-2.2-1.36-3.73-1.36h-6.82v10.29h6.82c1.53,0,2.79-.45,3.73-1.35,.96-.9,1.43-2.14,1.43-3.78"/><polygon class="cls-1" points="537.66 0 537.66 650.23 638.3 608.65 638.3 47.95 537.66 0"/><polygon class="cls-1" points="476.4 74.87 476.4 624.96 462.06 619.05 462.06 81.87 476.4 74.87"/><polygon class="cls-1" points="452.58 86.45 452.58 615.09 438.24 609.19 438.24 93.44 452.58 86.45"/><polygon class="cls-1" points="501.51 62.68 501.51 635.3 487.16 629.4 487.16 69.67 501.51 62.68"/><polygon class="cls-1" points="527.91 49.8 527.91 646.19 513.56 640.3 513.56 56.79 527.91 49.8"/><polygon class="cls-1" points="638.3 47.95 638.3 608.65 537.66 650.23 537.66 0 638.3 47.95"/><polygon class="cls-3" points="265.71 218.73 265.71 624.96 251.37 619.05 251.37 225.72 265.71 218.73"/><polygon class="cls-3" points="241.9 230.31 241.9 615.09 227.55 609.19 227.55 237.3 241.9 230.31"/><polygon class="cls-3" points="290.82 206.54 290.82 635.3 276.47 629.4 276.47 213.53 290.82 206.54"/><polygon class="cls-3" points="317.21 193.66 317.21 646.19 302.87 640.29 302.87 200.65 317.21 193.66"/><polygon class="cls-3" points="428.77 191.81 428.77 608.64 328.14 650.23 328.14 143.86 428.77 191.81"/><polygon class="cls-4" points="58.42 362.96 58.42 624.95 44.08 619.05 44.08 369.95 58.42 362.96"/><polygon class="cls-4" points="34.61 374.54 34.61 615.08 20.26 609.19 20.26 381.53 34.61 374.54"/><polygon class="cls-4" points="83.53 350.77 83.53 635.3 69.19 629.4 69.19 357.76 83.53 350.77"/><polygon class="cls-4" points="109.93 337.89 109.93 646.19 95.58 640.3 95.58 344.88 109.93 337.89"/><polygon class="cls-4" points="220.34 336.04 220.34 608.65 119.71 650.23 119.71 288.09 220.34 336.04"/></svg>