<?xml version="1.0" encoding="utf-8"?>
<!-- Generator: Adobe Illustrator 25.2.0, SVG Export Plug-In . SVG Version: 6.00 Build 0)  -->
<svg version="1.1" id="Layer_1" xmlns="http://www.w3.org/2000/svg" xmlns:xlink="http://www.w3.org/1999/xlink" x="0px" y="0px"
	 viewBox="0 0 166 153.8" style="enable-background:new 0 0 166 153.8;" xml:space="preserve">
<style type="text/css">
	.st0{fill:#80BD42;}
	.st1{fill:#80BC00;}
	.st2{fill:#006B68;}
</style>
<g>
	<path class="st0" d="M83,91.2c-23.9,0-43.3-19.4-43.3-43.3l0.3-6h6.8v-9.1h0.8v-1.4h3.3l0.9,1.5h1.7v11.6h1.4v1.6h0.4v-9.2h5.4v2.4
		h1.8v4.5h3.1v-4.4h4.1l1.4,1.9v5h8.4v1.2h-9.7v-5.9l-0.8-1h-2.2v5.8h-1.7v-1.5h-3.8v-4.4h-1.8V38h-3v9.4h-3v-1.8h-1.3V34.1H51
		l-0.9-1.5h-1.3V34H48v9.1h-6.8L41,47.9C41,71.1,59.8,90,83,90.1c23.2,0,42.1-18.8,42.2-42h-4.4v-7.4h-2.5v-3.8h-2.9v-1.7h-3.6v1.2
		l-0.8,0.8V44h-3.7v-5.1l-1-1h-2v-1.8H102v11.2h-3.7v-4.1h-3.4v4.1h-8.8v-1.2h7.6v-4.2h5.8v4.2h1.2V34.9h4.8v1.7h1.4l1.5,1.8v4.4
		h1.2v-6.2l0.8-0.8V34h6.2v1.7h3v3.8h2.5v7.4h4.3V48C126.2,71.8,106.9,91.2,83,91.2"/>
	<path class="st0" d="M66.6,73.8c-0.4,0-0.7,0.1-1.1,0.2c-0.9,0.7-1.2,1.9-0.6,2.8c0.3,0.5,0.8,0.8,1.4,0.9c0.2,0,0.4,0,0.6,0
		c2.6-0.3,5-1.4,6.9-3.2l0.4-0.3l0.2,0.4c0.9,1.5,2.4,2.6,4.1,2.9h0.3c1.2,0.1,2.3-0.6,2.7-1.8c0.1-1-0.4-1.9-1.2-2.3
		c-0.7-0.2-1.5-0.1-2.1,0.2c-0.2,0.1-0.3,0.3-0.4,0.8c-0.1,0.4-0.2,1-0.9,1c-0.6,0-1.2-0.4-1.5-0.9c-0.2-0.3-0.2-0.6,0-0.8
		c1.3-1.9,3-3.5,4.8-4.8c0.8-0.6,1.5-1.3,2.3-2l0.3-0.2l0.3,0.2c0.7,0.7,1.5,1.3,2.3,2c2,1.3,3.6,3.1,4.8,5.1c0.1,0.2,0.1,0.3,0,0.5
		c-0.3,0.6-0.8,1-1.4,1.1c-0.2,0.1-0.5,0-0.6-0.2C88,75.2,88,74.9,88,74.7c0-0.1,0-0.3,0-0.4c-0.2-0.5-0.8-0.6-1.4-0.8
		c-1.1-0.1-2.1,0.6-2.4,1.7c-0.1,0.5,0,1,0.2,1.4c0.5,0.7,1.4,1.1,2.2,1.1c1.9-0.2,3.6-1.3,4.6-3l0.2-0.4l0.3,0.3
		c1.8,1.4,4.2,3.1,6.5,3.1c0.6,0,1.3-0.1,1.9-0.3c0.4-0.2,0.8-0.6,0.9-1.1s0-1.1-0.3-1.5c-0.4-0.6-1-0.9-1.7-0.9s-1.3,0.3-1.7,0.9
		l-0.2,0.3L96.8,75c-1.3-0.4-2.5-1.3-3.3-2.5c-0.2-0.5-0.2-1.1,0.1-1.5c0.2-0.5,0.5-0.6,0.7-0.6s0.2,0,0.2,0
		c0.5,0.3,1.1,0.5,1.8,0.6c1,0,1.8-0.7,2-1.6c0.1-0.5,0-1.1-0.3-1.5c-0.3-0.5-0.8-0.8-1.4-0.9h-0.4c-1,0-1.9,0.5-2.5,1.2
		c-0.4,0.5-0.6,1.1-0.8,1.6c-0.1,0.5-0.4,1.1-0.6,1.5L92,71.8l-7.5-7l0.3-0.3c8.1-7.8,19-10.5,27.9-11.3c-1.1-0.1-2.3-0.2-3.4-0.2
		c-9.6-0.1-18.9,3.3-26.2,9.5l-0.2,0.2l0.1-0.1c-4.3-3.4-9.1-6-14.3-7.7c-5.1-1.5-10.4-2.1-15.7-1.7c8.9,0.8,19.8,3.6,27.9,11.4
		l0.3,0.3l-7.5,6.9l-0.3-0.4c-0.3-0.5-0.5-1-0.6-1.5c-0.2-0.6-0.4-1.2-0.8-1.7c-0.5-0.5-1.2-0.9-1.9-1.1c-1.1-0.3-2.3,0.4-2.6,1.5
		c0,0.1,0,0.1,0,0.2c-0.1,0.9,0.4,1.9,1.2,2.3c0.2,0,0.3,0,0.5,0c0.6-0.1,1.1-0.2,1.6-0.5l0.2-0.1c0.1,0,0.2,0,0.3,0
		c0.4,0,0.7,0.3,0.8,0.6c0.3,0.5,0.3,1.1,0,1.5c-0.9,1.2-2.1,2-3.4,2.4l-0.3,0.1l-0.1-0.3C68.1,74.3,67.4,73.9,66.6,73.8 M66.9,78.8
		c-0.3,0-0.5,0-0.8,0c-0.8-0.1-1.5-0.6-2-1.4c-0.8-1.4-0.4-3.2,0.9-4.1c1.3-0.7,2.9-0.4,3.8,0.6c1.1-0.3,2.1-1.1,2.7-2
		c0-0.1,0-0.3,0-0.5c0-0.1-0.1-0.3-0.2-0.4l-0.2,0.1c-0.6,0.3-1.3,0.5-2,0.5c-0.3,0-0.6-0.1-0.8-0.2c-1.2-0.6-1.9-1.9-1.7-3.2
		c0.2-1.4,1.4-2.4,2.8-2.4c0.2,0,0.5,0,0.7,0.1l0,0c0.8,0.3,1.6,0.8,2.2,1.4c0.5,0.6,0.8,1.2,0.9,1.9c0.1,0.3,0.2,0.6,0.4,0.9
		l6.2-5.6c-9.1-8.5-22-10.6-31.2-10.9l-3.8-0.1l3.7-0.7c6.8-1.2,13.7-0.9,20.3,1.1c5.2,1.7,10,4.3,14.3,7.7
		c9.5-7.9,22.1-11.1,34.3-8.8l3.8,0.7l-3.9,0.1c-9.2,0.2-22,2.4-31.3,11.1l6.2,5.6c0.2-0.3,0.2-0.6,0.3-0.9c0.2-0.7,0.5-1.4,0.9-1.9
		c0.9-1.1,2.3-1.6,3.6-1.4c0.7,0.2,1.4,0.6,1.8,1.2c0.9,1.2,0.6,3-0.6,3.8c-0.5,0.4-1.1,0.5-1.7,0.5c-0.7,0-1.4-0.2-2-0.5
		c-0.1,0.2-0.2,0.6-0.1,0.8c0.7,1,1.6,1.7,2.8,2c1.1-1.2,3-1.3,4.2-0.1c0.1,0.1,0.3,0.3,0.4,0.5c0.5,0.6,0.6,1.5,0.4,2.2
		s-0.7,1.3-1.3,1.5c-0.7,0.3-1.4,0.5-2.2,0.5c-2.5-0.3-4.8-1.3-6.6-3c-1.2,1.7-3.1,2.7-5.1,3c-1.2,0-2.3-0.6-3-1.5
		c-0.5-0.6-0.6-1.4-0.4-2.2c0.3-1.3,1.5-2.3,2.8-2.3c0.2,0,0.4,0,0.6,0.1c0.8,0.1,1.5,0.5,1.9,1.2c0.2,0.3,0.2,0.6,0.2,0.9l0,0
		c0.3-0.1,0.5-0.3,0.6-0.5c-1.2-1.9-2.8-3.5-4.6-4.8c-0.7-0.5-1.4-1.1-2-1.6c-0.7,0.6-1.4,1.2-2.1,1.8c-1.8,1.3-3.3,2.9-4.6,4.7
		c0.2,0.2,0.5,0.4,0.8,0.5c0-0.1,0.1-0.3,0.2-0.4c0-0.6,0.4-1.1,0.9-1.4c0.9-0.4,1.9-0.5,2.8-0.2c1.2,0.6,1.9,1.9,1.7,3.2
		c-0.5,1.8-2.3,2.9-4.2,2.4c-1.8-0.3-3.4-1.4-4.4-2.9C72,77.4,69.5,78.5,66.9,78.8"/>
	<path class="st0" d="M98.8,22.8l1.1,0.8l-0.8-1c-4.8-6.9-10.3-7.2-12-7c0.5-0.5,1.1-1,1.8-1.2l0.6-0.2L88.9,14
		c-1.6-0.6-3.3-0.4-4.7,0.6c-0.2-1.1-0.6-2.2-1.2-3.1c-0.1,0-0.2-0.1-0.2,0c-0.4,0.1-1.2,1.2-1.5,3.1c-1.3-1-3.1-1.2-4.6-0.5
		l-0.5,0.2l0.5,0.2c0.7,0.2,1.2,0.7,1.6,1.2c-7.1,0.2-9.6,3.6-11.7,6.4l-0.5,0.6l0.3,0.3c2.6-2.3,6.1-3.4,9.6-3
		c-2.6,1.1-7.5,4-9.2,12.6l-0.2,1.1l0.6-0.9c2.8-4.5,5.6-7.2,8.9-8.7c-2.2,3.2-5,8.8-3.9,13.8l0.2,0.9l0.2-0.9c0.9-4.1,3-7.9,5.9-11
		c-1.2,4.2-1.3,8.7-0.2,12.9l0.3,0.9v-1c0.3-4,1.1-7.9,2.5-11.7l0.6,4.5l-0.4,0.1l0.3,6.2h-0.5l0.5,6.3L81,45.3v0.2
		c0,0,0.4,4,0.6,6.2c-0.6,0.4-1.2,0.9-1.7,1.4v0.4h5.5v-0.4c-0.5-0.5-1.1-1-1.7-1.4l0.6-6.6h-0.6l0.4-6.5h-0.5l0.3-6.2h-0.5
		c0.1-0.6,0.3-2,0.6-4.6c1.7,3.7,2.7,7.8,2.9,11.9l0.2,1.5l0.2-1.5c0.8-4.3,0.6-8.8-0.4-13.1c2.7,3.3,4.8,7.2,6,11.3l0.3,1.2
		l0.1-1.2c0.5-5-1-10-4.2-13.8c1.9,0.7,3.6,1.9,4.9,3.3c1.6,1.6,3,3.4,4.2,5.4l0.5,0.9l-0.1-1.1C98,27.1,94.5,22.3,89.5,20
		C92.7,19.3,97.4,21.8,98.8,22.8"/>
	<path class="st1" d="M29.8,141.2h-0.6v-3.5l-1.1,3.5h-0.7l-1.1-3.5v3.5h-0.6V137h0.9l1.1,3.7l1.1-3.7h0.9L29.8,141.2z"/>
	<path class="st1" d="M31.3,137.3c0,0.2-0.1,0.4-0.4,0.4l0,0c-0.1,0-0.2,0-0.3-0.1c-0.1-0.1-0.1-0.2-0.1-0.3c0-0.1,0-0.2,0.1-0.3
		c0.1-0.1,0.2-0.1,0.3-0.1c0.1,0,0.2,0,0.3,0.1C31.3,137.1,31.3,137.2,31.3,137.3z M31.5,140.8l0.1,0.3c-0.2,0.1-0.3,0.1-0.5,0.1
		c-0.1,0-0.3,0-0.4-0.1s-0.1-0.2-0.1-0.3v-2.6h0.6v2.4c0,0.1,0,0.2,0.1,0.2H31.5z"/>
	<path class="st1" d="M34.9,140.8v0.3c-0.1,0.1-0.3,0.1-0.5,0.1c-0.1,0-0.3,0-0.4-0.1c-0.1-0.1-0.1-0.2-0.1-0.3v-1.6
		c0-0.1,0-0.3-0.1-0.4c-0.1-0.1-0.2-0.1-0.3-0.1c-0.2,0-0.3,0.1-0.5,0.1c-0.2,0.1-0.3,0.2-0.5,0.3v2.1H32v-3h0.6v0.4
		c0.2-0.1,0.3-0.2,0.5-0.3c0.2-0.1,0.4-0.1,0.6-0.1c0.2,0,0.5,0,0.7,0.2s0.2,0.5,0.2,0.8v1.5c0,0.1,0,0.2,0.1,0.2L34.9,140.8z"/>
	<path class="st1" d="M36.1,137.3c0,0.1,0,0.2-0.1,0.3s-0.2,0.1-0.3,0.1s-0.2,0-0.3-0.1c-0.1-0.1-0.1-0.2-0.1-0.3
		c0-0.2,0.2-0.4,0.4-0.4c0.1,0,0.2,0,0.3,0.1C36.1,137.1,36.1,137.2,36.1,137.3z M36.3,140.8v0.3c-0.2,0.1-0.3,0.1-0.5,0.1
		c-0.1,0-0.3,0-0.4-0.1c-0.1-0.1-0.1-0.2-0.1-0.3v-2.6H36v2.4c0,0.1,0,0.2,0.1,0.2H36.3z"/>
	<path class="st1" d="M36.8,141.1l0.1-0.5c0.1,0.1,0.3,0.1,0.4,0.1h0.4c0.5,0,0.7-0.1,0.7-0.4c0-0.1,0-0.2-0.1-0.2
		c-0.2-0.1-0.3-0.2-0.5-0.2c-0.2-0.1-0.5-0.2-0.7-0.3s-0.3-0.3-0.3-0.6c0-0.2,0.1-0.5,0.3-0.6c0.3-0.2,0.6-0.2,0.9-0.2
		c0.3,0,0.6,0,0.8,0.2l-0.1,0.5c-0.2-0.1-0.5-0.2-0.7-0.2c-0.4,0-0.6,0.1-0.6,0.3c0,0.1,0,0.2,0.1,0.2c0.1,0.1,0.3,0.2,0.4,0.2
		c0.3,0.1,0.5,0.2,0.7,0.3c0.3,0.3,0.4,0.8,0.1,1.1c-0.1,0.1-0.1,0.1-0.2,0.2c-0.2,0.2-0.5,0.2-0.8,0.2
		C37.5,141.2,37.2,141.2,36.8,141.1z"/>
	<path class="st1" d="M41,140.7l0.1,0.4c-0.2,0.1-0.4,0.1-0.7,0.1c-0.2,0-0.4-0.1-0.5-0.2c-0.1-0.2-0.2-0.4-0.1-0.6v-1.8h-0.5
		l0.1-0.5h0.4v-0.8l0.6-0.2v1H41v0.5h-0.6v1.7c0,0.1,0,0.2,0,0.3c0,0,0.1,0,0.3,0C40.7,140.7,40.9,140.7,41,140.7z"/>
	<path class="st1" d="M42.2,141.2h-0.6v-3h0.6v0.4c0-0.1,0.1-0.2,0.2-0.3c0.1-0.1,0.2-0.1,0.3-0.1c0.2,0,0.4,0.1,0.6,0.2l-0.1,0.5
		c-0.2,0-0.3,0-0.5,0s-0.4,0.2-0.5,0.4V141.2z"/>
	<path class="st1" d="M44.7,141.1l-1.1-2.9h0.6l0.8,2.1l0.6-2.1h0.6l-1.1,3.1c-0.1,0.3-0.2,0.6-0.5,0.9c-0.2,0.2-0.4,0.3-0.7,0.2
		c-0.2,0-0.4,0-0.6-0.1l0.1-0.5c0.2,0.1,0.3,0.1,0.5,0.1c0.1,0,0.2,0,0.3-0.1C44.5,141.6,44.6,141.4,44.7,141.1z"/>
	<path class="st1" d="M49.1,141.3c-1,0-1.5-0.5-1.5-1.5s0.5-1.5,1.5-1.5s1.4,0.5,1.4,1.5C50.6,140.7,50.1,141.3,49.1,141.3z
		 M49.1,140.8c0.2,0,0.4-0.1,0.6-0.2c0.2-0.3,0.2-0.5,0.2-0.8s0-0.6-0.2-0.8s-0.4-0.3-0.6-0.3c-0.2,0-0.5,0.1-0.6,0.2
		c-0.2,0.3-0.2,0.6-0.2,0.9c0,0.3,0,0.6,0.2,0.8C48.7,140.7,48.9,140.8,49.1,140.8z"/>
	<path class="st1" d="M52.1,141.2h-0.6v-2.5H51l0.1-0.5h0.4v-0.4c0-0.3,0-0.5,0.2-0.7s0.4-0.3,0.7-0.2c0.2,0,0.4,0,0.6,0.1l-0.1,0.5
		c-0.1,0-0.3,0-0.4,0c-0.1,0-0.2,0-0.3,0c0,0.1,0,0.2,0,0.3v0.5h0.6v0.5h-0.6L52.1,141.2z"/>
	<path class="st1" d="M58.6,141.2H58v-3.5l-1.2,3.5h-0.7l-1.1-3.5v3.5h-0.6V137h0.9l1.1,3.7l1.1-3.7h0.9L58.6,141.2z"/>
	<path class="st1" d="M62.2,140.8v0.3c-0.1,0.1-0.3,0.1-0.5,0.1c-0.1,0-0.3,0-0.4-0.1c-0.1-0.1-0.1-0.2-0.1-0.3
		c-0.2,0.1-0.3,0.2-0.5,0.3s-0.3,0.1-0.5,0.1s-0.5,0-0.7-0.2s-0.2-0.5-0.2-0.8v-2.1h0.6v2c0,0.2,0,0.3,0,0.4s0.1,0.1,0.3,0.1
		s0.4-0.1,0.5-0.1c0.2-0.1,0.3-0.2,0.4-0.3v-2.1h0.6v2.4c0,0.1,0,0.2,0.2,0.2L62.2,140.8z"/>
	<path class="st1" d="M65.6,140.8v0.3c-0.2,0.1-0.3,0.1-0.5,0.1c-0.1,0-0.3,0-0.4-0.1s-0.1-0.2-0.1-0.3v-1.6c0-0.1,0-0.2,0-0.4
		c-0.1-0.1-0.2-0.1-0.3-0.1c-0.2,0-0.3,0.1-0.5,0.1c-0.2,0.1-0.3,0.2-0.5,0.3v2.1h-0.6v-3h0.6v0.4c0.2-0.1,0.3-0.2,0.5-0.3
		c0.2-0.1,0.4-0.1,0.6-0.1s0.5,0,0.7,0.2s0.2,0.5,0.2,0.8v1.5c0,0.1,0,0.2,0.2,0.2L65.6,140.8z"/>
	<path class="st1" d="M66.8,137.3c0,0.1,0,0.2-0.1,0.3s-0.2,0.1-0.3,0.1c-0.1,0-0.2,0-0.3-0.1c-0.1-0.1-0.1-0.2-0.1-0.3
		c0-0.1,0-0.2,0.1-0.3c0.1-0.1,0.2-0.1,0.3-0.1c0.1,0,0.2,0,0.3,0.1C66.7,137.1,66.8,137.2,66.8,137.3z M67,140.8v0.3
		c-0.2,0.1-0.3,0.1-0.5,0.1c-0.1,0-0.3,0-0.4-0.1s-0.1-0.2-0.1-0.3v-2.6h0.6v2.4c0,0.1,0,0.2,0.2,0.2H67z"/>
	<path class="st1" d="M69.7,140.6l-0.1,0.5c-0.3,0.1-0.6,0.1-0.9,0.1c-0.4,0-0.7-0.1-0.9-0.4c-0.3-0.3-0.4-0.7-0.4-1.2
		c0-0.4,0.1-0.8,0.4-1.1c0.3-0.3,0.7-0.5,1.1-0.4c0.3,0,0.6,0,0.9,0.2l-0.1,0.5c-0.2-0.1-0.5-0.1-0.8-0.1c-0.6,0-0.9,0.4-0.9,1
		c0,0.7,0.3,1,1,1h0.4C69.5,140.7,69.6,140.7,69.7,140.6z"/>
	<path class="st1" d="M71,137.3c0,0.2-0.1,0.4-0.4,0.4l0,0c-0.1,0-0.2,0-0.3-0.1c-0.1-0.1-0.1-0.2-0.1-0.3c0-0.1,0-0.2,0.1-0.3
		c0.1-0.1,0.2-0.1,0.3-0.1c0.1,0,0.2,0,0.3,0.1C71,137.1,71,137.2,71,137.3z M71.3,140.8l0.1,0.3c-0.2,0.1-0.3,0.1-0.5,0.1
		c-0.1,0-0.3,0-0.4-0.1s-0.1-0.2-0.1-0.3v-2.6H71v2.4c0,0.1,0,0.2,0.1,0.2H71.3z"/>
	<path class="st1" d="M72.4,142.4h-0.6v-4.2h0.6v0.4c0.2-0.3,0.6-0.5,1-0.4c0.3,0,0.6,0.1,0.8,0.4c0.2,0.3,0.4,0.8,0.3,1.2
		c0,0.4-0.1,0.8-0.4,1.2c-0.2,0.3-0.6,0.4-1,0.4c-0.2,0-0.3,0-0.5,0c-0.1,0-0.2-0.1-0.4-0.2v1.2H72.4z M72.4,139.5v1
		c0.1,0.1,0.2,0.2,0.3,0.2c0.1,0,0.3,0,0.4,0c0.2,0,0.5-0.1,0.6-0.2c0.1-0.2,0.2-0.5,0.2-0.8s0-0.6-0.2-0.8
		c-0.1-0.2-0.3-0.2-0.6-0.2c-0.2,0-0.5,0.1-0.6,0.3C72.4,139.1,72.4,139.3,72.4,139.5z"/>
	<path class="st1" d="M77.8,140.8v0.3c-0.2,0.1-0.3,0.1-0.5,0.1c-0.1,0-0.3,0-0.4-0.1s-0.1-0.2-0.1-0.3c-0.2,0.3-0.5,0.5-0.9,0.4
		c-0.6,0-1-0.3-1-0.9c0-0.3,0.2-0.7,0.5-0.8s0.6-0.2,0.9-0.2h0.5V139c0-0.1,0-0.3-0.2-0.4c-0.2-0.1-0.4-0.1-0.6-0.1
		c-0.3,0-0.6,0-0.9,0.2l0.1-0.5c0.3-0.1,0.6-0.2,1-0.2c0.3,0,0.6,0.1,0.9,0.3c0.2,0.2,0.3,0.5,0.2,0.8v1.4c0,0.1,0,0.2,0.2,0.2
		L77.8,140.8z M76.9,140.1v-0.3h-0.4c-0.2,0-0.4,0-0.6,0.1c-0.1,0.1-0.2,0.3-0.2,0.4c0,0.3,0.2,0.4,0.5,0.4
		C76.6,140.8,76.9,140.5,76.9,140.1C76.9,140.2,76.9,140.2,76.9,140.1L76.9,140.1z"/>
	<path class="st1" d="M79.3,140.8v0.3c-0.2,0.1-0.3,0.1-0.5,0.1c-0.1,0-0.3,0-0.4-0.1s-0.1-0.2-0.1-0.3V137h0.6v3.7
		c0,0.1,0,0.2,0.1,0.2L79.3,140.8z"/>
	<path class="st1" d="M83.9,141.2h-0.7l-0.8-1.5h-0.8v1.5H81V137h1.3c1,0,1.5,0.4,1.5,1.3c0,0.3-0.1,0.5-0.2,0.8
		c-0.1,0.2-0.3,0.4-0.6,0.5L83.9,141.2z M81.6,139.1h0.8c0.4,0,0.7-0.2,0.7-0.8c0-0.2-0.1-0.4-0.2-0.6c-0.1-0.1-0.3-0.2-0.4-0.2
		h-0.8L81.6,139.1L81.6,139.1z"/>
	<path class="st1" d="M87.3,140.8v0.3c-0.2,0.1-0.3,0.1-0.5,0.1c-0.1,0-0.3,0-0.4-0.1s-0.1-0.2-0.1-0.3c-0.1,0.1-0.3,0.2-0.5,0.3
		s-0.3,0.1-0.5,0.1s-0.5,0-0.7-0.2s-0.2-0.5-0.2-0.8v-2.1H85v2c0,0.1,0,0.3,0,0.4c0.1,0.1,0.2,0.1,0.3,0.1c0.2,0,0.4-0.1,0.5-0.1
		c0.2-0.1,0.3-0.2,0.4-0.3v-2.1h0.6v2.4c0,0.1,0,0.2,0.2,0.2L87.3,140.8z"/>
	<path class="st1" d="M88.4,141.2h-0.6v-3h0.6v0.4c0-0.1,0.1-0.2,0.2-0.3c0.1-0.1,0.2-0.1,0.3-0.1c0.2,0,0.4,0.1,0.6,0.2l-0.1,0.5
		c-0.2,0-0.3,0-0.5,0s-0.4,0.2-0.5,0.4V141.2z"/>
	<path class="st1" d="M92.5,140.8v0.3c-0.2,0.1-0.3,0.1-0.5,0.1c-0.1,0-0.3,0-0.4-0.1s-0.1-0.2-0.1-0.3c-0.2,0.3-0.5,0.5-0.9,0.4
		c-0.6,0-1-0.3-1-0.9c0-0.3,0.2-0.7,0.5-0.8s0.6-0.2,0.9-0.2h0.5V139c0-0.1,0-0.3-0.2-0.4c-0.2-0.1-0.4-0.1-0.6-0.1
		c-0.3,0-0.6,0.1-0.9,0.2l0.1-0.5c0.3-0.1,0.6-0.2,1-0.2c0.3,0,0.6,0.1,0.9,0.3c0.2,0.2,0.3,0.5,0.2,0.8v1.4c0,0.1,0,0.2,0.2,0.2
		L92.5,140.8z M91.6,140.1v-0.3h-0.4c-0.2,0-0.4,0-0.6,0.1c-0.1,0.1-0.2,0.3-0.2,0.4c0,0.3,0.2,0.4,0.5,0.4
		C91.3,140.8,91.6,140.5,91.6,140.1C91.6,140.2,91.6,140.2,91.6,140.1L91.6,140.1z"/>
	<path class="st1" d="M93.9,140.8l0.1,0.3c-0.2,0.1-0.3,0.1-0.5,0.1c-0.1,0-0.3,0-0.4-0.1s-0.1-0.2-0.1-0.3V137h0.6v3.7
		c0,0.1,0,0.2,0.1,0.2L93.9,140.8z"/>
	<path class="st1" d="M98.9,141.2h-0.7l-0.3-1h-1.5l-0.3,1h-0.7l1.4-4.2h0.7L98.9,141.2z M97.7,139.7l-0.6-1.9l-0.6,1.9H97.7z"/>
	<path class="st1" d="M100.1,141.2h-0.6v-2.5H99l0.1-0.5h0.4v-0.4c0-0.3,0-0.5,0.2-0.7s0.4-0.3,0.7-0.2c0.2,0,0.4,0,0.6,0.1
		l-0.1,0.5c-0.1,0-0.3,0-0.4,0s-0.2,0-0.3,0c0,0.1,0,0.2,0,0.3v0.5h0.6v0.5h-0.6L100.1,141.2z M102.2,141.2h-0.6v-2.5h-0.5l0.1-0.5
		h0.4v-0.4c0-0.3,0-0.5,0.2-0.7s0.4-0.3,0.7-0.2c0.2,0,0.4,0,0.6,0.1l-0.1,0.5c-0.1,0-0.3,0-0.4,0s-0.2,0-0.3,0c0,0.1,0,0.2,0,0.3
		v0.5h0.6v0.5h-0.7C102.2,138.8,102.2,141.2,102.2,141.2z"/>
	<path class="st1" d="M105.9,140.8v0.3c-0.2,0.1-0.3,0.1-0.5,0.1c-0.1,0-0.3,0-0.4-0.1s-0.1-0.2-0.1-0.3c-0.2,0.3-0.5,0.5-0.9,0.4
		c-0.6,0-1-0.3-1-0.9c0-0.3,0.2-0.7,0.5-0.8s0.6-0.2,0.9-0.2h0.5V139c0-0.1-0.1-0.3-0.2-0.4c-0.2-0.1-0.4-0.1-0.6-0.1
		c-0.3,0-0.6,0-0.9,0.2l0.1-0.5c0.3-0.1,0.6-0.2,1-0.2c0.5-0.1,1,0.2,1.1,0.7c0,0.1,0,0.3,0,0.4v1.4c0,0.1,0,0.2,0.2,0.2
		L105.9,140.8z M105,140.1v-0.3h-0.4c-0.2,0-0.4,0-0.6,0.1c-0.1,0.1-0.2,0.3-0.2,0.4c0,0.3,0.2,0.4,0.5,0.4c0.2,0,0.3-0.1,0.5-0.2
		C105,140.5,105,140.3,105,140.1z"/>
	<path class="st1" d="M107.1,137.3c0,0.1,0,0.2-0.1,0.3s-0.2,0.1-0.3,0.1c-0.1,0-0.2,0-0.3-0.1c-0.1-0.1-0.1-0.2-0.1-0.3
		c0-0.1,0-0.2,0.1-0.3c0.1-0.1,0.2-0.1,0.3-0.1c0.1,0,0.2,0,0.3,0.1C107.1,137.1,107.1,137.2,107.1,137.3z M107.3,140.8v0.3
		c-0.2,0.1-0.3,0.1-0.5,0.1c-0.1,0-0.3,0-0.4-0.1s-0.1-0.2-0.1-0.3v-2.6h0.6v2.4c0,0.1,0,0.2,0.2,0.2H107.3z"/>
	<path class="st1" d="M108.5,141.2h-0.6v-3h0.6v0.4c0.1-0.1,0.1-0.2,0.2-0.3c0.1-0.1,0.2-0.1,0.3-0.1c0.2,0,0.4,0.1,0.6,0.2
		l-0.1,0.5c-0.2,0-0.3,0-0.5,0s-0.4,0.1-0.5,0.4V141.2z"/>
	<path class="st1" d="M109.9,141.1l0.1-0.5c0.1,0.1,0.3,0.1,0.4,0.1h0.4c0.5,0,0.7-0.1,0.7-0.4c0-0.1-0.1-0.2-0.1-0.2
		c-0.2-0.1-0.3-0.2-0.5-0.2c-0.2-0.1-0.5-0.2-0.7-0.3s-0.3-0.3-0.3-0.6c0-0.2,0.1-0.5,0.3-0.6c0.3-0.2,0.6-0.2,0.9-0.2
		s0.6,0,0.8,0.2l-0.1,0.5c-0.2-0.1-0.5-0.2-0.7-0.2c-0.4,0-0.6,0.1-0.6,0.3c0,0.1,0.1,0.2,0.1,0.2c0.1,0.1,0.3,0.2,0.4,0.2
		c0.2,0.1,0.5,0.2,0.7,0.3c0.2,0.2,0.3,0.4,0.3,0.6c0,0.3-0.1,0.6-0.4,0.7c-0.2,0.2-0.5,0.2-0.8,0.2
		C110.6,141.2,110.3,141.2,109.9,141.1z"/>
	<path class="st1" d="M117.5,140.7l-0.1,0.5c-0.1,0-0.3,0-0.4,0c-0.3,0-0.6-0.2-0.7-0.5c-0.1,0.1-0.3,0.3-0.5,0.3
		c-0.2,0.1-0.4,0.1-0.6,0.1c-0.4,0-0.7-0.1-1-0.3c-0.2-0.2-0.4-0.5-0.3-0.8c0-0.6,0.3-1.1,0.8-1.3c-0.2-0.3-0.3-0.6-0.4-1
		c0-0.3,0.1-0.5,0.3-0.7c0.2-0.2,0.5-0.3,0.8-0.3s0.7,0.1,1,0.2l-0.1,0.5c-0.2-0.1-0.5-0.2-0.8-0.2s-0.5,0.1-0.5,0.4
		s0.1,0.5,0.2,0.7c0.4,0.5,0.7,0.9,1.2,1.4c0.1-0.1,0.1-0.3,0.1-0.5c0-0.3,0-0.5,0-0.8h1.1l-0.1,0.5H117c0,0.2,0,0.4,0,0.6
		c-0.1,0.2-0.1,0.4-0.2,0.5c0.1,0.1,0.2,0.2,0.3,0.3c0.1,0,0.2,0,0.3,0C117.4,140.7,117.5,140.7,117.5,140.7z M116,140.5
		c-0.3-0.3-0.6-0.7-1-1.2c-0.3,0.1-0.5,0.5-0.5,0.8c0,0.5,0.2,0.7,0.8,0.7c0.1,0,0.3,0,0.4-0.1C115.8,140.6,115.9,140.5,116,140.5
		L116,140.5z"/>
	<path class="st1" d="M122.5,141.2h-0.6v-1.9h-1.8v1.9h-0.6V137h0.6v1.8h1.8V137h0.6V141.2z"/>
	<path class="st1" d="M124.7,141.3c-1,0-1.4-0.5-1.4-1.5s0.5-1.5,1.4-1.5s1.4,0.5,1.4,1.5C126.2,140.7,125.7,141.3,124.7,141.3z
		 M124.7,140.8c0.2,0,0.5-0.1,0.6-0.2c0.2-0.3,0.2-0.5,0.2-0.8s0-0.6-0.2-0.8c-0.3-0.3-0.9-0.3-1.2,0c-0.1,0.3-0.2,0.6-0.2,0.9
		c0,0.3,0,0.6,0.2,0.8C124.2,140.7,124.5,140.8,124.7,140.8z"/>
	<path class="st1" d="M129.7,140.8v0.3c-0.2,0.1-0.3,0.1-0.5,0.1c-0.1,0-0.3,0-0.4-0.1c-0.1-0.1-0.1-0.2-0.1-0.3
		c-0.1,0.1-0.3,0.2-0.5,0.3s-0.3,0.1-0.5,0.1s-0.5,0-0.7-0.2s-0.2-0.5-0.2-0.8v-2.1h0.6v2c0,0.1,0,0.3,0,0.4
		c0.1,0.1,0.2,0.1,0.3,0.1c0.2,0,0.4-0.1,0.5-0.1c0.2-0.1,0.3-0.2,0.4-0.3v-2.1h0.6v2.4c0,0.1,0,0.2,0.2,0.2L129.7,140.8z"/>
	<path class="st1" d="M130.1,141.1l0.1-0.5c0.1,0.1,0.3,0.1,0.4,0.1h0.4c0.5,0,0.7-0.1,0.7-0.4c0-0.1,0-0.2-0.1-0.2
		c-0.2-0.1-0.3-0.2-0.5-0.2c-0.2-0.1-0.5-0.2-0.7-0.3s-0.3-0.3-0.3-0.6c0-0.2,0.1-0.5,0.3-0.6c0.3-0.2,0.6-0.2,0.9-0.2
		c0.3,0,0.6,0,0.8,0.2l-0.1,0.5c-0.2-0.1-0.5-0.2-0.7-0.2c-0.4,0-0.6,0.1-0.6,0.3c0,0.1,0.1,0.2,0.1,0.2c0.1,0.1,0.3,0.2,0.4,0.2
		c0.2,0.1,0.5,0.2,0.7,0.3c0.3,0.3,0.4,0.8,0.1,1.1c-0.1,0.1-0.1,0.1-0.2,0.2c-0.2,0.2-0.5,0.2-0.8,0.2
		C130.7,141.2,130.4,141.2,130.1,141.1z"/>
	<path class="st1" d="M133.6,137.3c0,0.1,0,0.2-0.1,0.3s-0.2,0.1-0.3,0.1s-0.2,0-0.3-0.1c-0.1-0.1-0.1-0.2-0.1-0.3
		c0-0.1,0-0.2,0.1-0.3c0.1-0.1,0.2-0.1,0.3-0.1s0.2,0,0.3,0.1C133.6,137.1,133.6,137.2,133.6,137.3z M133.8,140.8v0.3
		c-0.2,0.1-0.3,0.1-0.5,0.1c-0.1,0-0.3,0-0.4-0.1c-0.1-0.1-0.1-0.2-0.1-0.3v-2.6h0.6v2.4c0,0.1,0,0.2,0.1,0.2H133.8z"/>
	<path class="st1" d="M137.2,140.8v0.3c-0.1,0.1-0.3,0.1-0.5,0.1c-0.1,0-0.3,0-0.4-0.1c-0.1-0.1-0.1-0.2-0.1-0.3v-1.6
		c0-0.2,0-0.3,0-0.4c-0.1-0.1-0.2-0.1-0.3-0.1c-0.2,0-0.3,0.1-0.5,0.1c-0.2,0.1-0.3,0.2-0.5,0.3v2.1h-0.6v-3h0.6v0.4
		c0.2-0.1,0.3-0.2,0.5-0.3c0.2-0.1,0.4-0.1,0.6-0.1c0.2,0,0.5,0,0.7,0.2s0.2,0.5,0.2,0.8v1.5c0,0.1,0,0.2,0.1,0.2L137.2,140.8z"/>
	<path class="st1" d="M139.8,141.1v-0.3c-0.1,0.1-0.3,0.2-0.4,0.3c-0.2,0-0.3,0-0.5,0c-0.8,0-1.2-0.5-1.2-1.5
		c-0.1-0.7,0.4-1.4,1.1-1.5c0.1,0,0.3,0,0.4,0c0.4,0,0.9,0,1.3,0.2v2.8c0.1,0.5-0.1,1-0.5,1.3c-0.3,0.1-0.7,0.2-1.1,0.2
		c-0.4,0-0.8-0.1-1.2-0.2l0.1-0.5c0.3,0.2,0.7,0.3,1.1,0.3c0.3,0,0.5,0,0.7-0.2C139.8,141.6,139.9,141.4,139.8,141.1z M139.8,139.8
		v-1c-0.2,0-0.4,0-0.6,0c-0.2,0-0.4,0-0.6,0.2c-0.2,0.2-0.4,0.5-0.3,0.9c0,0.3,0,0.6,0.2,0.8c0.1,0.2,0.4,0.3,0.6,0.2
		C139.5,140.7,139.8,140.4,139.8,139.8z"/>
	<path class="st2" d="M31.4,108.2H29v-1l-0.7,0.9h-0.5c-0.8,0.1-1.6-0.2-2.1-0.8c-0.4-0.5-0.6-1.1-0.6-1.7v-2.4c0-0.8,0.3-1.5,0.8-2
		c0.5-0.4,1.1-0.6,1.7-0.5h2.8v6h0.9L31.4,108.2z M26.7,98.9c-0.2,0-0.5-0.1-0.6-0.3c-0.2-0.2-0.3-0.4-0.3-0.6s0.1-0.5,0.3-0.6
		c0.2-0.2,0.4-0.3,0.6-0.2c0.2,0,0.5,0.1,0.6,0.2c0.2,0.2,0.3,0.4,0.3,0.6s-0.1,0.5-0.3,0.6C27.2,98.9,27,99,26.7,98.9L26.7,98.9z
		 M29.1,106.7v-4.6h-1.5c-0.5-0.1-1,0.3-1,0.8c0,0.1,0,0.2,0,0.3v2.4c0,0.3,0.1,0.6,0.3,0.8c0.2,0.2,0.6,0.3,0.9,0.2L29.1,106.7z
		 M28.9,98.9c-0.2,0-0.5-0.1-0.6-0.3C28.1,98.4,28,98.2,28,98s0.1-0.5,0.3-0.6c0.2-0.2,0.4-0.3,0.6-0.2c0.2,0,0.5,0.1,0.6,0.2
		c0.2,0.2,0.3,0.4,0.3,0.6s-0.1,0.5-0.3,0.6C29.4,98.9,29.2,99,28.9,98.9L28.9,98.9z"/>
	<path class="st2" d="M32.9,108.2h-1.6v-1.4H33c0.7,0,1-0.3,1-1v-5h1.4v4.8c0.1,0.8-0.3,1.5-0.9,2C34.1,108,33.5,108.2,32.9,108.2z
		 M33.4,111.3c0,0.5-0.4,0.9-0.8,0.9l0,0c-0.2,0-0.5-0.1-0.6-0.2c-0.2-0.2-0.3-0.4-0.2-0.6c0-0.2,0.1-0.5,0.2-0.6
		c0.3-0.3,0.9-0.3,1.2,0l0,0C33.3,110.8,33.4,111,33.4,111.3L33.4,111.3z M34.8,112.1c-0.2,0-0.5-0.1-0.6-0.2
		c-0.2-0.2-0.3-0.4-0.3-0.6s0.1-0.5,0.3-0.6c0.2-0.2,0.4-0.3,0.6-0.3c0.2,0,0.4,0.1,0.6,0.3c0.2,0.2,0.3,0.4,0.3,0.6
		s-0.1,0.4-0.2,0.6C35.3,112,35,112.1,34.8,112.1L34.8,112.1z"/>
	<path class="st2" d="M44.2,108.2h-6.6v-1.4h4.3v-2.4c0.2-1-0.6-2-1.6-2.1c-0.2,0-0.3,0-0.5,0h-1v-1.4h1.1c0.9,0,1.8,0.3,2.5,1
		c0.6,0.6,0.9,1.5,0.9,2.4v2.6h0.9L44.2,108.2z"/>
	<path class="st2" d="M48.1,108.2h-4v-1.4h1.7v-9h1.4v9h0.9C48.1,106.8,48.1,108.2,48.1,108.2z"/>
	<path class="st2" d="M53.2,108.2H48v-1.4h2.8v-6h1.4v6h0.9L53.2,108.2z M51.6,112.1c-0.2,0-0.5-0.1-0.6-0.2
		c-0.2-0.2-0.3-0.4-0.3-0.6s0.1-0.5,0.3-0.6c0.2-0.2,0.4-0.3,0.6-0.3c0.2,0,0.4,0.1,0.6,0.3c0.2,0.2,0.3,0.4,0.3,0.6
		s-0.1,0.4-0.3,0.6C52.1,112,51.8,112.1,51.6,112.1L51.6,112.1z"/>
	<path class="st2" d="M53.7,108.2h-0.6v-1.4h0.6c0.3,0,0.6-0.1,0.9-0.2c0.2-0.2,0.3-0.6,0.3-0.9v-7.9h1.4v8.1c0,0.7-0.2,1.3-0.7,1.8
		C55,108,54.3,108.2,53.7,108.2z"/>
	<path class="st2" d="M59.7,108.2l-1.4,0.8V97.7h1.4V108.2z"/>
	<path class="st2" d="M72.5,108.5v-7.7h1.4v7.8c0,1.2-0.7,2.3-1.7,2.8c-0.9,0.5-1.9,0.8-3,0.7c-1.1,0-2.2-0.3-3.2-0.9
		c-0.9-0.6-1.4-1.6-1.4-2.6v-3.8l1.5-0.9v4.6c0,0.8,0.4,1.5,1.1,1.8c0.6,0.3,1.3,0.4,2,0.4c0.8,0,1.6-0.2,2.3-0.6
		C72.3,109.8,72.6,109.1,72.5,108.5z M69.4,99c-0.2,0-0.5-0.1-0.7-0.3c-0.2-0.2-0.3-0.4-0.3-0.6s0.1-0.5,0.3-0.6
		c0.2-0.2,0.4-0.3,0.7-0.2c0.5,0,0.8,0.4,0.8,0.9c0,0.2-0.1,0.5-0.3,0.6C69.8,98.9,69.6,99,69.4,99z"/>
	<path class="st2" d="M77.7,112.1l-1-1.3h0.2c2,0,3.1-0.7,3.1-2.2v-0.4h-1.2c-0.7,0.1-1.5-0.2-2-0.7s-0.7-1.2-0.7-1.8v-2.4
		c0-0.7,0.2-1.4,0.8-1.9c0.5-0.4,1.1-0.6,1.8-0.6h2.8v7.7c0.1,1-0.3,2.1-1,2.8C79.6,111.8,78.7,112.1,77.7,112.1z M79.9,106.7v-4.6
		h-1.4c-0.3,0-0.6,0.1-0.8,0.3c-0.2,0.2-0.3,0.5-0.2,0.8v2.4c0,0.3,0.1,0.6,0.3,0.9c0.3,0.2,0.7,0.3,1.1,0.2H79.9z"/>
	<path class="st2" d="M89.7,108.2h-0.9v0.2c0.1,1-0.3,2.1-1,2.8c-0.8,0.6-1.8,0.9-2.7,0.9l-1-1.3h0.2c2,0,3.1-0.7,3.1-2.2v-0.4h-1.2
		c-0.7,0.1-1.5-0.2-2-0.7s-0.7-1.2-0.6-1.8v-2.4c0-0.7,0.2-1.4,0.7-1.9c0.5-0.4,1.1-0.6,1.8-0.6H89v6h0.9L89.7,108.2z M87.5,98.9
		h-2.7v-0.6h0.6c-0.1-0.2-0.2-0.4-0.2-0.6c0-0.3,0.1-0.6,0.3-0.8c0.2-0.2,0.5-0.3,0.8-0.3H87v0.6h-0.4c-0.5,0-0.8,0.2-0.8,0.6
		s0.3,0.6,0.8,0.6h0.8L87.5,98.9L87.5,98.9z M87.4,106.7v-4.6H86c-0.3,0-0.6,0.1-0.8,0.3c-0.2,0.2-0.3,0.5-0.2,0.8v2.4
		c0,0.3,0.1,0.6,0.3,0.9c0.3,0.2,0.7,0.3,1.1,0.2H87.4z"/>
	<path class="st2" d="M103.7,108.2H89.6v-1.4h4.2v-6h1.4v6h2.5v-6h1.4v6h2.5v-6h1.4v6h0.6L103.7,108.2z M98.3,98.1
		c0,0.2-0.1,0.5-0.3,0.6c-0.2,0.2-0.4,0.3-0.6,0.3s-0.5-0.1-0.6-0.3c-0.3-0.4-0.3-0.9,0-1.3c0.2-0.2,0.4-0.3,0.6-0.2
		c0.2,0,0.5,0.1,0.6,0.3C98.2,97.6,98.3,97.9,98.3,98.1z M99.2,96.1c0,0.2-0.1,0.4-0.2,0.6c-0.1,0.1-0.3,0.2-0.5,0.2
		c-0.4,0-0.8-0.4-0.8-0.8l0,0c0-0.2,0.1-0.4,0.2-0.6s0.3-0.2,0.6-0.2c0.2,0,0.4,0.1,0.5,0.2C99.1,95.7,99.2,95.9,99.2,96.1z
		 M100.5,98.1c0,0.2-0.1,0.5-0.3,0.6c-0.2,0.2-0.4,0.3-0.6,0.3s-0.5-0.1-0.6-0.3c-0.2-0.2-0.3-0.4-0.2-0.6c0-0.5,0.3-0.9,0.8-0.9
		h0.1c0.2,0,0.5,0.1,0.6,0.2C100.4,97.6,100.5,97.8,100.5,98.1z"/>
	<path class="st2" d="M104.2,108.2h-0.6v-1.4h0.6c0.3,0,0.6-0.1,0.9-0.2c0.2-0.2,0.3-0.6,0.3-0.9v-7.9h1.4v8.1
		c0,0.7-0.2,1.3-0.7,1.8C105.5,108,104.9,108.2,104.2,108.2z"/>
	<path class="st2" d="M110.3,108.2l-1.4,0.8V97.7h1.4V108.2z"/>
	<path class="st2" d="M120.6,100.7v4.9c0.1,0.8-0.3,1.6-0.9,2.1c-0.5,0.3-1.1,0.5-1.8,0.5c-0.7,0-1.5-0.2-2-0.7
		c-0.4-0.5-0.7-1.2-0.6-1.8v-2.4c0-0.7,0.2-1.5,0.8-2c0.5-0.4,1.1-0.6,1.7-0.6H120.6z M116.8,99c-0.5,0-0.9-0.4-0.9-0.9
		c0-0.2,0.1-0.5,0.3-0.6c0.2-0.2,0.4-0.2,0.6-0.2s0.5,0.1,0.6,0.2c0.2,0.2,0.3,0.4,0.3,0.6s-0.1,0.5-0.3,0.6
		C117.3,98.9,117.1,99,116.8,99z M119.1,105.6v-3.5h-1.4c-0.7,0-1,0.4-1,1.1v2.4c0,0.7,0.4,1.1,1.2,1.1
		C118.7,106.7,119.1,106.4,119.1,105.6z M119.1,98.9c-0.5,0-0.9-0.4-0.9-0.9c0-0.2,0.1-0.5,0.3-0.6c0.3-0.3,0.9-0.3,1.2,0
		c0.2,0.2,0.3,0.4,0.3,0.6s-0.1,0.5-0.3,0.6C119.6,98.8,119.3,99,119.1,98.9L119.1,98.9z"/>
	<path class="st2" d="M123,112.1l-1-1.3c1.1-0.1,2-1.2,1.8-2.3v-0.1v-7.7h1.4v8.1C125.3,110.3,124.4,111.6,123,112.1z"/>
	<path class="st2" d="M128.8,108.2l-1.4,0.8V97.7h1.4V108.2z"/>
	<path class="st2" d="M131.2,112.1l-1-1.3c1.1-0.1,2-1.2,1.8-2.3v-0.1v-7.7h1.4v8.1C133.5,110.3,132.6,111.6,131.2,112.1z M132.7,99
		c-0.2,0-0.5-0.1-0.6-0.3c-0.2-0.2-0.3-0.4-0.2-0.6c0-0.2,0.1-0.5,0.2-0.6c0.2-0.2,0.4-0.3,0.6-0.3c0.5,0,0.9,0.4,0.8,0.9l0,0
		c0,0.2-0.1,0.5-0.2,0.6C133.2,98.9,133,99,132.7,99L132.7,99z"/>
	<path class="st2" d="M137.2,112.1l-1-1.3h0.2c2,0,3.1-0.7,3.1-2.2v-0.4h-1.2c-0.7,0.1-1.5-0.2-2-0.7s-0.7-1.2-0.6-1.8v-2.4
		c0-0.7,0.2-1.4,0.7-1.9c0.5-0.4,1.1-0.6,1.8-0.6h2.8v7.7c0,1-0.3,2-1.1,2.8C139.1,111.8,138.2,112.1,137.2,112.1z M139.4,106.7
		v-4.6H138c-0.3,0-0.6,0.1-0.8,0.3c-0.2,0.2-0.3,0.5-0.2,0.8v2.4c0,0.3,0.1,0.6,0.3,0.9c0.3,0.2,0.7,0.3,1.1,0.2H139.4z"/>
	<path class="st2" d="M33.2,128.8V121h1.5v7.9c0,1.2-0.6,2.3-1.7,2.8c-0.9,0.5-1.9,0.8-3,0.8c-1.2,0-2.3-0.3-3.3-1
		c-0.9-0.6-1.4-1.6-1.3-2.6v-3.7l1.4-1v4.6c0,0.8,0.4,1.5,1.2,1.8c0.6,0.3,1.3,0.4,2,0.4c0.8,0,1.6-0.2,2.3-0.6
		C32.9,130.1,33.2,129.5,33.2,128.8z M30.1,119.3c-0.2,0-0.5-0.1-0.6-0.3c-0.2-0.2-0.3-0.4-0.3-0.6s0.1-0.5,0.3-0.6
		c0.2-0.2,0.4-0.3,0.6-0.3s0.4,0.1,0.6,0.3c0.2,0.2,0.3,0.4,0.3,0.6s-0.1,0.5-0.3,0.6C30.5,119.2,30.3,119.3,30.1,119.3z"/>
	<path class="st2" d="M39,128.5L39,128.5c-0.7,0-1.3-0.2-1.8-0.7c-0.4-0.4-0.6-1-0.6-1.5v-8.2h1.5v8.1c0,0.6,0.3,0.9,0.8,0.9H39
		V128.5z"/>
	<path class="st2" d="M41.4,128.5h-2.5v-1.4h2.5V128.5z"/>
	<path class="st2" d="M50.1,128.5h-8.8v-1.4h6.5v-3.5c0.1-0.5-0.3-1-0.8-1c-0.1,0-0.2,0-0.2,0H43v-2c0-1.7,0.9-2.6,2.7-2.6h2.5v1.5
		h-2.7c-0.5-0.1-1,0.3-1.1,0.8c0,0.1,0,0.2,0,0.3v0.4h2.3c0.7,0,1.4,0.2,1.9,0.7c0.4,0.5,0.6,1.2,0.5,1.8v3.5H50L50.1,128.5z"/>
	<path class="st2" d="M52.4,128.5H50v-1.4h2.4V128.5z"/>
	<path class="st2" d="M63.2,128.5H52.3v-1.4h4.2V121h1.4v6h2.5v-6h1.4v6h1.4c0.7,0,1.1-0.3,1.1-1v-5h1.4v4.9c0,0.7-0.2,1.4-0.7,1.9
		C64.6,128.3,63.9,128.5,63.2,128.5z"/>
	<path class="st2" d="M72.6,128.5h-4.8v-1.4h2.6L68,121h1.5l2.3,6h0.6c0.3,0,0.6-0.1,0.9-0.2c0.2-0.2,0.3-0.5,0.3-0.8v-7.9H75v8.1
		c0,0.7-0.2,1.3-0.7,1.8C74,128.3,73.3,128.6,72.6,128.5z M70.7,132.5h-2.8v-0.7h0.6c-0.3-0.5-0.2-1,0.2-1.4
		c0.2-0.2,0.5-0.4,0.8-0.3h0.6v0.6h-0.4c-0.5,0-0.7,0.2-0.7,0.6c0,0.4,0.2,0.6,0.7,0.6h0.9v0.6H70.7z"/>
	<path class="st2" d="M78.7,128.5l-1.4,0.8V118h1.4V128.5z"/>
	<path class="st2" d="M82.4,132.5l-1-1.3h0.2c2,0,3.1-0.7,3.1-2.2v-0.5h-1.2c-0.8,0.1-1.5-0.2-2.1-0.7c-0.5-0.5-0.7-1.2-0.6-1.8
		v-2.4c-0.1-0.7,0.2-1.4,0.6-1.9c0.5-0.5,1.2-0.7,1.8-0.7h2.9v7.7c0.1,1-0.3,2.1-1,2.8C84.4,132.1,83.4,132.5,82.4,132.5z
		 M84.7,127.1v-4.5h-1.4c-0.3,0-0.6,0.1-0.8,0.2c-0.2,0.2-0.3,0.5-0.2,0.8v2.4c0,0.3,0.1,0.6,0.3,0.9c0.3,0.2,0.7,0.3,1.1,0.2H84.7z
		"/>
	<path class="st2" d="M97.3,128.5H95v-0.9l-0.7,0.9h-0.5c-0.8,0.1-1.5-0.2-2.1-0.8c-0.4-0.5-0.6-1.1-0.6-1.8v-2.3
		c0-0.8,0.3-1.5,0.8-2c0.5-0.4,1.1-0.6,1.7-0.6h2.8v6h0.9L97.3,128.5z M92.7,119.3c-0.2,0-0.5-0.1-0.6-0.3c-0.2-0.2-0.3-0.4-0.3-0.6
		s0.1-0.5,0.3-0.6c0.2-0.2,0.4-0.3,0.6-0.3s0.5,0.1,0.6,0.3c0.2,0.2,0.3,0.4,0.3,0.6s-0.1,0.5-0.3,0.6
		C93.1,119.2,92.9,119.3,92.7,119.3L92.7,119.3z M95,127.1v-4.5h-1.4c-0.5-0.1-1,0.3-1,0.8c0,0.1,0,0.2,0,0.2v2.4
		c0,0.3,0.1,0.6,0.3,0.8c0.2,0.2,0.6,0.3,0.9,0.2L95,127.1z M94.9,119.3c-0.2,0-0.5-0.1-0.6-0.3c-0.2-0.2-0.3-0.4-0.3-0.6
		s0.1-0.5,0.3-0.6c0.2-0.2,0.4-0.3,0.6-0.3s0.5,0.1,0.6,0.3c0.2,0.2,0.3,0.4,0.3,0.6s-0.1,0.5-0.3,0.6
		C95.3,119.2,95.1,119.3,94.9,119.3L94.9,119.3z"/>
	<path class="st2" d="M99.6,128.5h-2.4v-1.4h2.4V128.5z"/>
	<path class="st2" d="M101.1,128.5h-1.6v-1.4h1.7c0.7,0,1.1-0.3,1.1-1V121h1.4v5c0.1,0.8-0.3,1.5-0.9,2
		C102.4,128.3,101.8,128.5,101.1,128.5z M101.7,131.6c0,0.2-0.1,0.5-0.3,0.6c-0.2,0.2-0.4,0.3-0.6,0.3c-0.5,0-0.9-0.3-0.9-0.8
		c0,0,0,0,0-0.1c0-0.2,0.1-0.5,0.3-0.6c0.2-0.2,0.4-0.3,0.6-0.3s0.5,0.1,0.6,0.3C101.6,131.1,101.7,131.4,101.7,131.6L101.7,131.6z
		 M103.1,132.5c-0.2,0-0.5-0.1-0.6-0.2c-0.2-0.2-0.3-0.4-0.2-0.6c0-0.2,0.1-0.5,0.2-0.6c0.2-0.2,0.4-0.3,0.6-0.3s0.4,0.1,0.6,0.3
		c0.2,0.2,0.3,0.4,0.2,0.6c0,0.2-0.1,0.5-0.2,0.6C103.5,132.4,103.3,132.5,103.1,132.5L103.1,132.5z"/>
	<path class="st2" d="M107.5,132.5l-1-1.3h0.2c2,0,3-0.7,3.1-2.2v-0.5h-1.2c-0.7,0.1-1.5-0.2-2-0.7s-0.7-1.2-0.7-1.8v-2.4
		c0-0.7,0.2-1.4,0.7-1.9c0.5-0.4,1.1-0.6,1.8-0.6h2.8v7.7c0.1,1-0.3,2.1-1,2.8C109.5,132.2,108.5,132.5,107.5,132.5z M109.7,127.1
		v-4.5h-1.4c-0.3,0-0.6,0.1-0.8,0.2c-0.2,0.2-0.3,0.5-0.2,0.8v2.4c0,0.3,0.1,0.6,0.3,0.9c0.3,0.2,0.7,0.3,1.1,0.2H109.7z"/>
	<path class="st2" d="M113.6,132.5l-1-1.3c0.6-0.1,1.1-0.4,1.4-0.8c0.3-0.5,0.4-1,0.4-1.5v-7.8h1.4v6h0.9v1.4h-0.9v0.7
		C115.9,130.6,115,132,113.6,132.5z"/>
	<path class="st2" d="M124.5,128.5h-7.9v-1.4h1.8v-3.5c0-0.7,0.2-1.4,0.8-2c0.5-0.4,1.1-0.6,1.7-0.6h2.9v6h0.8v1.5H124.5z
		 M119.9,119.3c-0.2,0-0.5-0.1-0.6-0.3c-0.2-0.2-0.3-0.4-0.3-0.6s0.1-0.5,0.3-0.6c0.2-0.2,0.4-0.3,0.6-0.3s0.4,0.1,0.6,0.3
		c0.2,0.2,0.3,0.4,0.3,0.6s-0.1,0.5-0.3,0.6C120.3,119.2,120.1,119.3,119.9,119.3L119.9,119.3z M122.2,127.1v-4.5h-1.4
		c-0.7,0-1,0.4-1,1.1v3.5L122.2,127.1z M122.1,119.3c-0.2,0-0.5-0.1-0.6-0.3c-0.2-0.2-0.3-0.4-0.3-0.6s0.1-0.5,0.3-0.6
		c0.2-0.2,0.4-0.3,0.6-0.3s0.5,0.1,0.6,0.3c0.2,0.2,0.3,0.4,0.3,0.6s-0.1,0.5-0.3,0.6C122.5,119.2,122.3,119.3,122.1,119.3
		L122.1,119.3z"/>
	<path class="st2" d="M126.9,128.5h-2.4v-1.4h2.4V128.5z"/>
	<path class="st2" d="M127.4,128.5h-0.6v-1.4h0.6c0.3,0,0.6-0.1,0.9-0.2c0.2-0.2,0.3-0.5,0.3-0.8v-8h1.4v8.1c0,0.7-0.2,1.3-0.7,1.8
		C128.7,128.3,128,128.6,127.4,128.5z"/>
	<path class="st2" d="M133.5,128.5l-1.5,0.8V118h1.5V128.5z"/>
	<path class="st2" d="M137.2,132.5l-1-1.3h0.2c2,0,3-0.7,3.1-2.2v-0.5h-1.2c-0.7,0.1-1.5-0.2-2-0.7s-0.7-1.2-0.6-1.8v-2.4
		c0-0.7,0.2-1.4,0.7-1.9c0.5-0.4,1.1-0.7,1.8-0.6h2.8v7.7c0.1,1-0.3,2.1-1,2.8C139.2,132.2,138.2,132.5,137.2,132.5z M139.4,127.1
		v-4.5H138c-0.3,0-0.6,0.1-0.8,0.2c-0.2,0.2-0.3,0.5-0.2,0.8v2.4c0,0.4,0.1,0.7,0.3,0.9c0.3,0.2,0.7,0.3,1.1,0.2H139.4z"/>
</g>
</svg>
